<svg width="423" height="406" viewBox="0 0 423 406" fill="none" xmlns="http://www.w3.org/2000/svg">
<path d="M218.797 402.286C217.475 403.275 219.678 404.594 219.788 405.034C221.33 402.726 218.246 401.846 218.797 402.286Z" fill="#12213A"/>
<path d="M234 380.739L234.991 376.231L233.559 379.639L234 380.739Z" fill="#12213A"/>
<path d="M241.051 371.174H239.839L240.831 374.802C244.246 370.625 247.551 364.138 251.076 362.27C246.449 360.95 245.237 369.085 241.051 371.174Z" fill="#12213A"/>
<path d="M264.296 361.06C264.296 361.06 264.737 361.06 264.957 360.95C265.288 360.62 265.839 360.071 266.831 359.191C265.068 358.642 267.822 356.223 264.296 361.06Z" fill="#12213A"/>
<path d="M264.957 360.95C263.195 362.929 267.161 360.73 264.957 360.95V360.95Z" fill="#12213A"/>
<path d="M272.78 351.826L271.347 355.234C272.559 355.454 274.873 353.365 274.543 354.684C276.526 351.606 275.313 351.496 272.78 351.826Z" fill="#12213A"/>
<path d="M272.118 349.077C272.118 349.077 273 348.857 272.89 347.428L272.118 349.077Z" fill="#12213A"/>
<path d="M270.356 352.705L272.118 349.187C271.237 349.077 270.245 348.198 271.237 350.726C270.576 349.627 270.907 351.056 270.356 352.705Z" fill="#12213A"/>
<path d="M265.728 352.375C261.432 357.432 264.186 358.752 268.483 353.695C266.5 354.354 264.296 355.783 265.728 352.375Z" fill="#12213A"/>
<path d="M248.983 358.312L246.339 359.301L245.788 361.83C246.118 360.511 250.085 359.081 249.093 358.312H248.983Z" fill="#12213A"/>
<path d="M287.653 333.027C285.119 335.335 285.229 336.215 286 336.765L284.899 339.293C286.221 338.853 288.424 337.424 289.415 338.304C288.975 337.534 286.991 337.424 286 336.875L287.653 333.137V333.027Z" fill="#12213A"/>
<path d="M270.136 343.691L268.042 350.397L270.907 342.811L270.136 343.691Z" fill="#12213A"/>
<path d="M299.771 331.048L300.212 326.211L299.771 328.08V331.048Z" fill="#12213A"/>
<path d="M306.381 321.044C306.381 323.353 309.907 321.484 309.466 323.463C311.119 321.374 311.669 318.845 312.11 316.427C311.119 318.406 309.355 319.945 306.271 321.044H306.381Z" fill="#12213A"/>
<path d="M292.5 328.849C293.05 329.069 294.483 329.619 296.356 328.52L293.491 327.86C293.491 327.86 292.831 328.52 292.39 328.849H292.5Z" fill="#12213A"/>
<path d="M293.491 327.75C294.703 326.651 295.475 325.881 295.915 325.551C295.585 325.771 294.813 326.431 293.491 327.75Z" fill="#12213A"/>
<path d="M276.856 333.027C276.856 335.335 279.61 334.346 278.728 338.194C279.279 335.665 281.593 331.268 276.856 333.027Z" fill="#12213A"/>
<path d="M286.882 332.477L288.754 328.19L285.449 330.608C285.449 330.608 287.212 331.158 286.882 332.477Z" fill="#12213A"/>
<path d="M288.754 328.19L289.856 327.31L289.525 326.211L288.754 328.19Z" fill="#12213A"/>
<path d="M309.796 310.93C307.813 312.249 305.94 313.678 304.398 315.327C304.729 316.097 305.059 317.746 306.712 315.987C307.153 314.008 308.474 312.579 309.907 310.93H309.796Z" fill="#12213A"/>
<path d="M300.101 321.594L300.322 321.264C300.322 321.264 299.771 321.374 300.101 321.594Z" fill="#12213A"/>
<path d="M324.228 295.979L324.449 296.309L318.5 301.805L318.72 301.146L317.729 302.465C319.381 301.476 320.924 301.146 324.009 300.706C325.11 297.958 324.89 296.968 324.559 296.309L324.889 295.979H324.228Z" fill="#12213A"/>
<path d="M303.737 315.327C302.195 316.207 301.864 317.416 301.754 318.625C302.525 317.526 303.407 316.427 304.398 315.437C304.288 315.107 304.068 314.888 303.847 315.437L303.737 315.327Z" fill="#12213A"/>
<path d="M316.517 307.742C315.526 307.962 314.424 308.401 313.432 308.841C314.644 308.841 316.737 308.401 316.517 307.742Z" fill="#12213A"/>
<path d="M301.203 321.264V321.484C301.864 321.484 301.644 321.374 301.203 321.264Z" fill="#12213A"/>
<path d="M300.212 321.154C300.212 321.154 300.873 321.154 301.093 321.154C301.424 320.274 301.534 319.285 301.644 318.515C300.983 319.395 300.542 320.274 300.212 321.154Z" fill="#12213A"/>
<path d="M312.55 307.742C311.669 305.103 313.652 301.585 310.127 301.366C306.822 304.884 309.246 305.213 307.924 307.962C312.991 302.025 307.373 310.49 312.331 307.632C311.559 308.951 310.678 310.05 309.796 311.04C311.008 310.27 312.22 309.611 313.432 309.061H313.211C313.211 309.061 312.551 309.061 312.881 308.841V308.731C312.661 308.511 312.551 308.182 312.441 307.852C314.424 306.642 313.102 308.072 312.881 308.731C312.881 308.841 312.992 308.951 313.102 309.061L317.619 302.575C316.186 303.454 314.754 304.993 312.441 307.742H312.55Z" fill="#12213A"/>
<path d="M275.974 326.321C275.974 326.321 276.415 326.431 276.526 326.541C276.636 325.991 276.635 325.661 275.974 326.321Z" fill="#12213A"/>
<path d="M278.619 328.41C281.483 326.761 286.55 326.211 286.33 326.761C284.127 325.771 282.365 325.221 279.28 325.112C279.17 325.771 279.5 326.761 278.067 327.86C276.415 328.41 277.187 326.98 276.526 326.541C276.195 327.75 275.093 330.498 278.398 328.959V328.3L278.619 328.41Z" fill="#12213A"/>
<path d="M296.576 312.029C293.602 314.228 295.364 314.778 295.695 315.877L299.44 310.49L295.585 311.26L296.576 312.029Z" fill="#12213A"/>
<path d="M327.424 298.837V293.56L326.212 296.419L327.424 298.837Z" fill="#12213A"/>
<path d="M333.262 292.021L333.923 289.493L331.94 290.262L333.262 292.021Z" fill="#12213A"/>
<path d="M342.407 123.711C341.966 120.193 342.186 115.686 340.534 117.774L339.322 120.193C340.974 121.182 341.856 122.502 342.407 123.711Z" fill="#12213A"/>
<path d="M392.204 228.809C394.187 228.259 397.382 225.621 399.365 223.862C397.051 225.181 394.848 226.06 393.416 226.83C392.314 227.27 391.764 227.819 392.314 228.809H392.204Z" fill="#12213A"/>
<path d="M137.161 62.1474C136.61 63.2467 136.72 64.0163 137.161 64.3461C137.712 63.2467 137.822 62.3672 137.161 62.1474Z" fill="#12213A"/>
<path d="M181.229 382.497C181.229 382.497 182.221 383.707 183.653 384.696C182.992 384.256 182.11 383.377 181.229 382.497Z" fill="#12213A"/>
<path d="M356.618 267.066C355.517 268.385 356.618 267.506 356.618 267.066V267.066Z" fill="#12213A"/>
<path d="M356.068 267.176C356.068 267.176 354.966 267.616 353.974 268.275C354.635 268.055 355.406 267.616 356.068 267.176Z" fill="#12213A"/>
<path d="M356.618 267.066C356.618 267.066 357.5 266.186 358.271 265.197C357.61 265.967 356.839 266.516 356.068 267.066C356.398 266.956 356.618 266.956 356.618 267.066Z" fill="#12213A"/>
<path d="M410.602 189.452C411.703 186.264 406.084 180.217 399.915 174.391L397.602 172.192L396.28 171.093C395.398 170.323 394.517 169.664 393.636 169.004C391.983 167.575 390.441 166.256 389.559 165.046L387.356 167.025C384.492 163.947 380.966 161.638 376.449 158.78L374.796 160.869C370.059 159.22 367.856 151.305 362.568 146.357C363.669 146.028 364.771 147.457 365.212 148.776C363.339 138.552 349.348 138.992 346.814 130.417C344.72 129.757 343.949 128.548 343.508 127.119C343.618 127.229 343.839 127.339 343.949 127.339C343.839 127.229 343.619 127.009 343.398 126.789C343.068 125.91 342.847 124.92 342.517 123.931C342.627 124.92 342.847 125.91 343.178 126.569C342.076 125.58 340.203 124.151 338.22 123.051L339.542 120.413C339.542 120.413 339.322 120.193 339.102 120.083C338.331 117.774 336.898 119.753 336.237 122.062C335.135 121.622 334.034 121.292 332.932 121.182C334.915 116.675 327.754 118.104 329.407 113.047C326.652 113.597 320.263 106.341 315.856 109.09C316.297 108.54 315.966 107.88 316.847 108.76C315.525 106.561 314.093 104.472 311.559 103.813L313.322 100.515L306.051 100.075C305.28 96.2272 305.169 94.3583 309.466 94.6881C300.873 92.0497 303.847 91.2801 296.135 89.5211L298.008 88.092C296.245 86.443 291.398 85.8933 291.619 83.5847C290.958 76.6588 273.22 64.3461 266.389 51.8135C263.525 58.5195 263.966 45.1075 259.89 48.5154C260.441 46.7565 259.779 44.7777 262.313 45.4373C256.254 41.5896 256.585 36.2027 250.085 35.8729C250.635 34.114 252.839 35.3233 252.949 34.114C252.288 34.004 250.415 33.5643 250.525 32.355C250.635 31.1457 252.178 32.1352 253.5 32.355C248.212 27.5179 244.246 30.4861 240.61 33.3444C239.619 29.1669 238.076 28.1775 234 28.3974C234.22 26.4185 233.779 23.7801 237.415 26.5285C236.644 25.5391 234.221 22.4609 231.797 19.9324C231.026 19.1628 230.254 18.3933 229.593 17.7337C228.712 16.9641 227.94 16.3045 227.169 15.7549C225.627 14.7655 224.525 14.4356 223.975 15.2052C223.754 13.5562 220.67 11.5773 220.009 11.3575C214.72 5.86073 214.28 4.87131 208.992 0.0341797L210.424 2.34281C209.543 3.77196 208.881 3.8819 208.11 3.22229C206.678 4.87131 204.805 4.87131 202.271 7.94949V7.28988C197.314 10.0383 196.102 11.6873 195.331 13.0065C194.449 14.4356 193.788 15.4251 187.839 18.7231L190.152 20.3721C193.127 25.9788 181.119 24.4397 178.475 30.2663L181.118 29.9365C180.347 33.6742 169 30.4861 166.246 32.2451C165.365 32.355 166.466 30.9259 166.797 29.9365C158.314 33.3444 168.67 33.2345 164.814 38.2915C162.61 37.7418 162.28 33.6742 159.085 36.4226C156.441 36.7524 155.008 49.6148 148.178 50.934C150.161 51.1539 152.144 51.2638 150.822 54.1221C148.068 57.64 138.263 58.6295 138.814 64.7858C138.153 64.8957 137.712 64.7858 137.382 64.5659C135.839 67.864 130.992 73.8005 131.322 77.0985C122.288 72.4812 119.644 95.3477 113.365 89.0814L106.314 96.8868L105.873 96.0073C100.695 100.295 100.585 103.483 100.365 106.671C98.8224 107.331 99.0426 105.901 98.8223 105.572C90.5596 111.178 90.2288 112.168 87.4745 121.072L84.8306 119.643C84.3899 122.392 71.6105 126.459 67.2037 135.584C66.9834 135.254 66.7628 134.704 66.9832 133.935C61.695 143.939 42.9661 146.577 47.5933 156.801L44.3986 163.617C51.4494 157.681 46.6019 167.795 50.568 166.366C48.4748 169.334 41.6445 170.763 44.5089 167.245H45.3897C42.6355 162.078 35.9155 173.841 33.3816 171.093C26.8817 177.799 12.8898 190.221 0 201.655C6.05932 208.471 12.5594 215.616 19.3899 222.542C19.8306 221.003 20.3816 219.464 20.9325 218.145L26.3306 223.862C26.551 224.741 26.3307 225.73 25.6697 226.06C24.8985 226.28 24.4576 226.5 22.0339 223.971C22.0339 224.851 23.0256 226.06 23.5764 226.5C24.2374 226.94 25.0089 227.27 25.8902 227.489C27.6529 227.929 29.4155 227.819 29.8561 227.489C34.4833 234.525 24.0172 228.699 25.7799 230.568L28.4239 232.766L28.2033 231.887C31.3982 232.656 32.9405 231.557 36.3558 235.295C38.0083 238.153 35.6947 238.263 36.3558 239.362C36.1354 239.582 36.3564 240.022 37.6784 240.792L42.7458 246.288L42.9663 241.781C46.4917 242.99 47.814 246.838 48.0344 241.781C47.4835 249.476 66.3224 262.998 67.2037 266.406C72.2715 267.945 75.4661 271.243 79.2118 275.421C78.661 273.882 80.7541 270.694 83.949 274.432C77.1185 278.719 87.9151 283.116 86.7032 289.932C86.8134 284.765 97.1694 299.167 97.0592 291.471C99.4829 294.77 95.1867 293.67 96.0681 297.188C105.102 301.915 109.839 313.678 119.093 321.484C119.974 320.934 119.644 318.406 122.508 319.065L123.39 327.2C125.373 328.52 129.119 324.562 129.67 330.169C129.89 329.179 130.11 327.53 131.432 328.41C144.542 348.528 168.339 359.521 178.695 383.047C177.814 379.419 179.466 380.739 181.229 382.388C180.458 380.958 183.101 380.629 183.762 379.419L188.169 389.204C192.136 387.774 195.992 396.569 199.297 394.7L196.542 392.941C199.848 392.941 200.399 389.533 200.839 386.015L207.78 392.941L307.703 293.23C307.703 293.23 307.373 293.56 307.373 293.78L308.364 294.55C309.796 293.011 310.237 291.471 308.915 292.021L312.992 287.954C311.89 291.801 318.831 295.209 324.119 295.759C323.458 294.989 322.797 294.33 324.67 290.482C322.797 290.482 316.297 294.66 317.178 290.812C320.042 286.195 320.814 288.283 323.458 287.404C320.263 286.964 324.118 281.248 322.356 278.499L345.051 255.853C345.051 255.853 345.381 256.512 345.932 256.512L347.695 254.094C351.44 253.984 346.152 260.47 349.678 258.711C348.135 262.779 346.924 267.945 341.966 270.804L338.661 269.045C339.542 269.704 342.737 267.945 343.068 266.077C342.517 268.825 333.593 268.715 335.025 273.882L339.542 272.892C338 276.96 337.119 283.116 332.822 285.865C336.898 286.744 333.373 284.765 338.771 285.205C332.932 283.776 347.915 276.41 340.644 276.081C346.593 276.85 346.483 273.112 352.763 272.673C351.771 271.903 350.008 272.233 353.313 269.704C353.423 270.144 353.754 270.144 354.635 268.825C354.084 269.155 353.754 269.485 353.313 269.704C353.313 269.375 353.203 268.715 353.313 268.385C353.423 268.385 353.534 268.385 353.534 268.275H353.313C352.212 268.605 351.22 268.715 350.559 268.495C350.118 265.087 354.856 260.47 355.517 257.941C357.61 256.622 355.737 259.59 357.61 259.59L358.492 255.743C360.585 257.392 366.203 254.204 363.229 259.371L366.974 255.743C370.169 254.533 373.584 252.005 374.686 249.366C376.779 248.047 377.11 242.88 377 245.849L381.627 238.923L382.178 239.362C388.678 233.316 388.898 226.61 405.203 216.936C403.551 219.134 401.788 221.443 399.144 223.862C402.559 221.993 406.415 219.134 407.297 215.616C406.525 216.056 405.974 216.386 405.203 216.826C407.737 213.308 409.94 210.01 416.11 204.953L420.186 204.073C420.737 203.304 421.508 202.534 422.5 201.545C418.424 197.257 414.127 190.331 410.381 189.342L410.602 189.452ZM397.932 196.048C396.72 196.048 396.059 196.818 395.508 197.257L391.983 193.739C394.186 194.289 396.389 195.059 397.932 196.158V196.048ZM375.678 166.366C375.898 167.025 379.423 176.15 379.313 179.228C379.313 179.778 379.093 180.217 378.873 180.657L374.356 176.15L377.44 172.962L373.805 175.6L369.398 171.203C371.822 168.784 374.246 166.915 375.788 166.476L375.678 166.366ZM353.313 143.499L352.983 145.918L358.601 148.446C355.957 148.886 351.881 149.216 347.475 149.326L340.754 142.62C345.271 141.96 350.008 141.96 353.424 143.499H353.313ZM301.754 103.703L298.559 100.515L305.39 99.965C304.178 100.625 302.966 102.054 301.754 103.703ZM237.966 33.6742C238.187 34.6637 236.754 35.1034 234.771 35.4332C235.322 35.5431 235.873 35.6531 236.313 35.763C236.644 36.8624 236.314 37.522 235.873 38.0716L233.449 35.6531C233.449 35.6531 234.33 35.5431 234.771 35.4332C234.11 35.3233 233.449 35.1034 232.788 34.9935L231.687 33.8941C231.687 32.355 231.686 30.9259 231.466 30.1563L237.966 33.7842V33.6742ZM37.5681 239.142L37.2373 237.823C39.661 239.142 38.6698 239.142 37.5681 239.142ZM313.763 287.734L318.28 283.226C317.839 285.095 316.297 286.964 313.763 287.734ZM319.491 282.237V282.127L319.822 281.797L319.601 282.237H319.491ZM368.957 251.895V251.675C371.822 250.356 370.72 250.796 368.957 251.895ZM381.958 230.018C378.212 235.405 377.771 229.798 377.44 231.007C368.186 239.033 376.229 244.419 366.534 249.037C361.466 249.696 362.017 244.749 359.814 243.76C362.678 239.142 366.975 239.472 369.398 236.834L365.212 238.923C365.652 236.944 367.635 233.976 369.618 233.206C369.067 233.206 368.517 233.536 367.745 233.866L385.152 216.496C385.703 220.234 384.602 225.291 381.958 230.018Z" fill="#12213A"/>
<path d="M344.5 281.028L346.703 277.84C345.492 279.269 344.61 279.269 343.618 279.599C344.169 280.038 345.381 280.148 344.5 281.028Z" fill="#12213A"/>
<path d="M335.356 276.96C333.483 275.531 332.271 277.84 330.729 280.038C330.839 279.928 330.949 279.818 331.059 279.708C332.822 282.567 334.144 279.708 335.356 276.96Z" fill="#12213A"/>
<path d="M330.288 280.478C329.737 281.138 329.186 281.797 328.525 282.237C329.186 283.446 329.407 281.687 330.288 280.478Z" fill="#12213A"/>
<path d="M359.372 261.569C358.05 262.009 360.915 264.318 359.703 264.098C360.805 267.176 363.228 255.523 359.372 261.569Z" fill="#12213A"/>
<path d="M330.398 271.683L328.305 273.002L331.059 274.432L330.398 271.683Z" fill="#12213A"/>
<path d="M344.94 259.48L341.305 262.009C341.305 262.009 341.525 262.888 341.195 263.548C343.178 261.679 345.601 260.14 344.94 259.59V259.48Z" fill="#12213A"/>
<path d="M341.195 263.438C340.203 264.427 339.322 265.307 339.102 266.186C339.653 265.637 340.644 264.427 341.195 263.438Z" fill="#12213A"/>
<path d="M378.322 224.081C377.991 225.401 377 226.83 378.322 227.05L381.076 223.092C380.746 222.103 379.314 222.542 378.432 224.081H378.322Z" fill="#12213A"/>
<path d="M190.703 396.239L192.466 399.647L192.135 396.569L190.703 396.239Z" fill="#12213A"/>
<path d="M198.746 397.998L196.653 401.296L200.619 400.417C199.958 399.977 198.526 399.098 198.746 397.998Z" fill="#12213A"/>
</svg>
