<svg width="24" height="25" viewBox="0 0 24 25" fill="none" xmlns="http://www.w3.org/2000/svg">
<path d="M7.5 3.67004C7.10218 3.67004 6.72064 3.82808 6.43934 4.10938C6.15804 4.39069 6 4.77222 6 5.17004C6 5.56787 6.15804 5.9494 6.43934 6.2307C6.72064 6.51201 7.10218 6.67004 7.5 6.67004C7.89782 6.67004 8.27936 6.51201 8.56066 6.2307C8.84196 5.9494 9 5.56787 9 5.17004C9 4.77222 8.84196 4.39069 8.56066 4.10938C8.27936 3.82808 7.89782 3.67004 7.5 3.67004ZM4.5 5.17004C4.5 4.37439 4.81607 3.61133 5.37868 3.04872C5.94129 2.48611 6.70435 2.17004 7.5 2.17004C8.29565 2.17004 9.05871 2.48611 9.62132 3.04872C10.1839 3.61133 10.5 4.37439 10.5 5.17004C10.5 5.96569 10.1839 6.72875 9.62132 7.29136C9.05871 7.85397 8.29565 8.17004 7.5 8.17004C6.70435 8.17004 5.94129 7.85397 5.37868 7.29136C4.81607 6.72875 4.5 5.96569 4.5 5.17004ZM3.768 9.17004C2.79 9.17004 2 9.96104 2 10.938V11.298C2 11.505 2 12.706 2.7 13.873C3.248 14.783 4.177 15.6 5.675 15.966C5.88017 15.4206 6.2517 14.9536 6.737 14.631C5.134 14.46 4.376 13.748 3.987 13.101C3.503 12.295 3.5 11.437 3.5 11.295V10.938C3.5 10.79 3.62 10.67 3.768 10.67H8.03C8.09606 10.1412 8.26779 9.63113 8.535 9.17004H3.768ZM15.465 9.17004C15.726 9.62204 15.902 10.129 15.969 10.67H20.232C20.38 10.67 20.5 10.79 20.5 10.938V11.295C20.5 11.437 20.497 12.295 20.013 13.1C19.624 13.748 18.866 14.46 17.263 14.631C17.743 14.951 18.119 15.417 18.325 15.966C19.823 15.6 20.752 14.783 21.299 13.873C22 12.706 22 11.506 22 11.297V10.937C22 9.96204 21.209 9.17004 20.232 9.17004H15.465ZM15 5.17004C15 4.77222 15.158 4.39069 15.4393 4.10938C15.7206 3.82808 16.1022 3.67004 16.5 3.67004C16.8978 3.67004 17.2794 3.82808 17.5607 4.10938C17.842 4.39069 18 4.77222 18 5.17004C18 5.56787 17.842 5.9494 17.5607 6.2307C17.2794 6.51201 16.8978 6.67004 16.5 6.67004C16.1022 6.67004 15.7206 6.51201 15.4393 6.2307C15.158 5.9494 15 5.56787 15 5.17004ZM16.5 2.17004C15.7044 2.17004 14.9413 2.48611 14.3787 3.04872C13.8161 3.61133 13.5 4.37439 13.5 5.17004C13.5 5.96569 13.8161 6.72875 14.3787 7.29136C14.9413 7.85397 15.7044 8.17004 16.5 8.17004C17.2956 8.17004 18.0587 7.85397 18.6213 7.29136C19.1839 6.72875 19.5 5.96569 19.5 5.17004C19.5 4.37439 19.1839 3.61133 18.6213 3.04872C18.0587 2.48611 17.2956 2.17004 16.5 2.17004ZM12 9.67004C11.803 9.67004 11.608 9.70884 11.426 9.78422C11.244 9.85961 11.0786 9.9701 10.9393 10.1094C10.8001 10.2487 10.6896 10.414 10.6142 10.596C10.5388 10.778 10.5 10.9731 10.5 11.17C10.5 11.367 10.5388 11.5621 10.6142 11.7441C10.6896 11.9261 10.8001 12.0914 10.9393 12.2307C11.0786 12.37 11.244 12.4805 11.426 12.5559C11.608 12.6312 11.803 12.67 12 12.67C12.3978 12.67 12.7794 12.512 13.0607 12.2307C13.342 11.9494 13.5 11.5679 13.5 11.17C13.5 10.7722 13.342 10.3907 13.0607 10.1094C12.7794 9.82808 12.3978 9.67004 12 9.67004ZM9 11.17C9 10.3744 9.31607 9.61133 9.87868 9.04872C10.4413 8.48611 11.2044 8.17004 12 8.17004C12.7956 8.17004 13.5587 8.48611 14.1213 9.04872C14.6839 9.61133 15 10.3744 15 11.17C15 11.9657 14.6839 12.7288 14.1213 13.2914C13.5587 13.854 12.7956 14.17 12 14.17C11.2044 14.17 10.4413 13.854 9.87868 13.2914C9.31607 12.7288 9 11.9657 9 11.17ZM6.5 16.938C6.5 15.96 7.291 15.17 8.268 15.17H15.732C16.709 15.17 17.5 15.961 17.5 16.938V17.298C17.5 17.505 17.5 18.706 16.8 19.873C16.057 21.107 14.613 22.17 12 22.17C9.387 22.17 7.942 21.107 7.2 19.873C6.5 18.706 6.5 17.506 6.5 17.297V16.938ZM8.268 16.67C8.23281 16.67 8.19796 16.677 8.16544 16.6904C8.13293 16.7039 8.10338 16.7237 8.0785 16.7485C8.05361 16.7734 8.03387 16.803 8.0204 16.8355C8.00693 16.868 8 16.9028 8 16.938V17.295C8 17.437 8.003 18.295 8.487 19.1C8.933 19.843 9.864 20.67 12 20.67C14.136 20.67 15.067 19.843 15.513 19.1C15.997 18.295 16 17.437 16 17.295V16.938C16 16.867 15.9718 16.7988 15.9215 16.7485C15.8712 16.6983 15.8031 16.67 15.732 16.67H8.268Z" fill="white"/>
</svg>
