<svg width="76" height="66" viewBox="0 0 76 66" fill="none" xmlns="http://www.w3.org/2000/svg">
<g filter="url(#filter0_dd_0_233)">
<path d="M28.8243 11.2915C28.8243 10.0869 29.0616 8.89417 29.5226 7.78131C29.9835 6.66845 30.6592 5.65728 31.5109 4.80553C32.3627 3.95378 33.3738 3.27814 34.4867 2.81717C35.5996 2.35621 36.7923 2.11896 37.9969 2.11896C39.2014 2.11896 40.3942 2.35621 41.507 2.81717C42.6199 3.27814 43.6311 3.95378 44.4828 4.80553C45.3346 5.65728 46.0102 6.66845 46.4712 7.78131C46.9321 8.89417 47.1694 10.0869 47.1694 11.2915V30.1061H28.8243V11.2915Z" stroke="#81574F" stroke-width="0.875"/>
</g>
<g filter="url(#filter1_f_0_233)">
<path d="M29.6653 10.3285C29.6446 9.111 29.8665 7.90156 30.3181 6.77072C30.7697 5.63988 31.4419 4.61027 32.2956 3.74195C33.1493 2.87363 34.1673 2.18398 35.2903 1.71322C36.4133 1.24245 37.6188 1 38.8365 1C40.0542 1 41.2596 1.24245 42.3826 1.71322C43.5056 2.18398 44.5237 2.87363 45.3773 3.74195C46.231 4.61027 46.9033 5.63988 47.3549 6.77072C47.8065 7.90156 48.0284 9.111 48.0077 10.3285V29.1431H29.6653V10.3285Z" stroke="url(#paint0_radial_0_233)" stroke-width="0.175"/>
<path d="M29.6653 10.3285C29.6446 9.111 29.8665 7.90156 30.3181 6.77072C30.7697 5.63988 31.4419 4.61027 32.2956 3.74195C33.1493 2.87363 34.1673 2.18398 35.2903 1.71322C36.4133 1.24245 37.6188 1 38.8365 1C40.0542 1 41.2596 1.24245 42.3826 1.71322C43.5056 2.18398 44.5237 2.87363 45.3773 3.74195C46.231 4.61027 46.9033 5.63988 47.3549 6.77072C47.8065 7.90156 48.0284 9.111 48.0077 10.3285V29.1431H29.6653V10.3285Z" stroke="url(#paint1_radial_0_233)" stroke-width="0.175"/>
</g>
<g filter="url(#filter2_ddd_0_233)">
<path d="M0.996427 23.4163C0.996427 22.0093 1.55536 20.6599 2.55026 19.665C3.54516 18.6701 4.89453 18.1112 6.30154 18.1112H69.6949C71.1019 18.1112 72.4513 18.6701 73.4462 19.665C74.4411 20.6599 75 22.0093 75 23.4163V60.3133C75 61.7203 74.4411 63.0697 73.4462 64.0646C72.4513 65.0595 71.1019 65.6184 69.6949 65.6184H6.29888C4.89188 65.6184 3.54251 65.0595 2.5476 64.0646C1.5527 63.0697 0.993774 61.7203 0.993774 60.3133V23.4163H0.996427Z" fill="url(#paint2_linear_0_233)"/>
</g>
<g filter="url(#filter3_f_0_233)">
<path d="M2.27501 16.5886C2.27501 13.7503 4.56681 11.4479 7.39443 11.4479H68.5995C71.4271 11.4479 73.7189 13.7477 73.7189 16.5859V28.0423C73.7224 30.4232 72.7802 32.708 71.0993 34.3943C69.4185 36.0806 67.1368 37.0302 64.7559 37.0344H11.238C10.0588 37.0331 8.89137 36.7993 7.8025 36.3466C6.71364 35.8939 5.72466 35.2311 4.89205 34.396C4.05945 33.5609 3.39954 32.57 2.95004 31.4798C2.50054 30.3896 2.27026 29.2215 2.27235 28.0423V16.5859L2.27501 16.5886Z" fill="#74394F"/>
</g>
<g filter="url(#filter4_dddd_0_233)">
<path d="M0.996427 15.3417C0.996427 13.9347 1.55536 12.5854 2.55026 11.5904C3.54516 10.5955 4.89453 10.0366 6.30154 10.0366H69.6949C71.1019 10.0366 72.4513 10.5955 73.4462 11.5904C74.4411 12.5854 75 13.9347 75 15.3417V27.1721C75 29.6344 74.0219 31.9958 72.2808 33.7369C70.5397 35.4779 68.1783 36.4561 65.7161 36.4561H10.2777C7.81546 36.4561 5.45405 35.4779 3.71298 33.7369C1.9719 31.9958 0.993774 29.6344 0.993774 27.1721V15.3417H0.996427Z" fill="url(#paint3_linear_0_233)"/>
</g>
<g filter="url(#filter5_dd_0_233)">
<path d="M43.9678 31.3615H32.026C30.561 31.3615 29.3734 32.549 29.3734 34.014V41.7223C29.3734 43.1873 30.561 44.3749 32.026 44.3749H43.9678C45.4327 44.3749 46.6203 43.1873 46.6203 41.7223V34.014C46.6203 32.549 45.4327 31.3615 43.9678 31.3615Z" fill="url(#paint4_linear_0_233)"/>
</g>
<path d="M43.9678 31.3612H32.026C30.561 31.3612 29.3734 32.5488 29.3734 34.0138V41.7221C29.3734 43.187 30.561 44.3746 32.026 44.3746H43.9678C45.4327 44.3746 46.6203 43.187 46.6203 41.7221V34.0138C46.6203 32.5488 45.4327 31.3612 43.9678 31.3612Z" fill="url(#paint5_linear_0_233)"/>
<g filter="url(#filter6_d_0_233)">
<path d="M46.6177 36.457H29.3761V34.014C29.3761 33.3105 29.6556 32.6358 30.153 32.1384C30.6505 31.6409 31.3252 31.3615 32.0287 31.3615H43.9651C44.6686 31.3615 45.3433 31.6409 45.8408 32.1384C46.3382 32.6358 46.6177 33.3105 46.6177 34.014V36.457Z" fill="url(#paint6_linear_0_233)"/>
</g>
<defs>
<filter id="filter0_dd_0_233" x="28.0587" y="0.915833" width="20.0951" height="29.7808" filterUnits="userSpaceOnUse" color-interpolation-filters="sRGB">
<feFlood flood-opacity="0" result="BackgroundImageFix"/>
<feColorMatrix in="SourceAlpha" type="matrix" values="0 0 0 0 0 0 0 0 0 0 0 0 0 0 0 0 0 0 127 0" result="hardAlpha"/>
<feOffset dx="0.109375" dy="-0.328125"/>
<feGaussianBlur stdDeviation="0.21875"/>
<feComposite in2="hardAlpha" operator="out"/>
<feColorMatrix type="matrix" values="0 0 0 0 0.466667 0 0 0 0 0.258824 0 0 0 0 0.337255 0 0 0 1 0"/>
<feBlend mode="normal" in2="BackgroundImageFix" result="effect1_dropShadow_0_233"/>
<feColorMatrix in="SourceAlpha" type="matrix" values="0 0 0 0 0 0 0 0 0 0 0 0 0 0 0 0 0 0 127 0" result="hardAlpha"/>
<feOffset dy="-0.175"/>
<feGaussianBlur stdDeviation="0.164062"/>
<feComposite in2="hardAlpha" operator="out"/>
<feColorMatrix type="matrix" values="0 0 0 0 0.376471 0 0 0 0 0.235294 0 0 0 0 0.227451 0 0 0 1 0"/>
<feBlend mode="normal" in2="effect1_dropShadow_0_233" result="effect2_dropShadow_0_233"/>
<feBlend mode="normal" in="SourceGraphic" in2="effect2_dropShadow_0_233" result="shape"/>
</filter>
<filter id="filter1_f_0_233" x="29.3577" y="0.693756" width="18.9576" height="28.7556" filterUnits="userSpaceOnUse" color-interpolation-filters="sRGB">
<feFlood flood-opacity="0" result="BackgroundImageFix"/>
<feBlend mode="normal" in="SourceGraphic" in2="BackgroundImageFix" result="shape"/>
<feGaussianBlur stdDeviation="0.109375" result="effect1_foregroundBlur_0_233"/>
</filter>
<filter id="filter2_ddd_0_233" x="0.687524" y="17.8049" width="74.6187" height="47.9666" filterUnits="userSpaceOnUse" color-interpolation-filters="sRGB">
<feFlood flood-opacity="0" result="BackgroundImageFix"/>
<feColorMatrix in="SourceAlpha" type="matrix" values="0 0 0 0 0 0 0 0 0 0 0 0 0 0 0 0 0 0 127 0" result="hardAlpha"/>
<feOffset dx="0.153125" dy="-0.153125"/>
<feGaussianBlur stdDeviation="0.0765625"/>
<feComposite in2="hardAlpha" operator="out"/>
<feColorMatrix type="matrix" values="0 0 0 0 0.411765 0 0 0 0 0.227451 0 0 0 0 0.278431 0 0 0 1 0"/>
<feBlend mode="normal" in2="BackgroundImageFix" result="effect1_dropShadow_0_233"/>
<feColorMatrix in="SourceAlpha" type="matrix" values="0 0 0 0 0 0 0 0 0 0 0 0 0 0 0 0 0 0 127 0" result="hardAlpha"/>
<feOffset dx="-0.153125"/>
<feGaussianBlur stdDeviation="0.0765625"/>
<feComposite in2="hardAlpha" operator="out"/>
<feColorMatrix type="matrix" values="0 0 0 0 0.580392 0 0 0 0 0.407843 0 0 0 0 0.411765 0 0 0 1 0"/>
<feBlend mode="normal" in2="effect1_dropShadow_0_233" result="effect2_dropShadow_0_233"/>
<feColorMatrix in="SourceAlpha" type="matrix" values="0 0 0 0 0 0 0 0 0 0 0 0 0 0 0 0 0 0 127 0" result="hardAlpha"/>
<feOffset dy="-0.153125"/>
<feGaussianBlur stdDeviation="0.0765625"/>
<feComposite in2="hardAlpha" operator="out"/>
<feColorMatrix type="matrix" values="0 0 0 0 0.447059 0 0 0 0 0.180392 0 0 0 0 0.423529 0 0 0 1 0"/>
<feBlend mode="normal" in2="effect2_dropShadow_0_233" result="effect3_dropShadow_0_233"/>
<feBlend mode="normal" in="SourceGraphic" in2="effect3_dropShadow_0_233" result="shape"/>
</filter>
<filter id="filter3_f_0_233" x="2.05359" y="11.2292" width="71.884" height="26.024" filterUnits="userSpaceOnUse" color-interpolation-filters="sRGB">
<feFlood flood-opacity="0" result="BackgroundImageFix"/>
<feBlend mode="normal" in="SourceGraphic" in2="BackgroundImageFix" result="shape"/>
<feGaussianBlur stdDeviation="0.109375" result="effect1_foregroundBlur_0_233"/>
</filter>
<filter id="filter4_dddd_0_233" x="0.687524" y="9.73037" width="74.6187" height="27.0319" filterUnits="userSpaceOnUse" color-interpolation-filters="sRGB">
<feFlood flood-opacity="0" result="BackgroundImageFix"/>
<feColorMatrix in="SourceAlpha" type="matrix" values="0 0 0 0 0 0 0 0 0 0 0 0 0 0 0 0 0 0 127 0" result="hardAlpha"/>
<feOffset dy="0.153125"/>
<feGaussianBlur stdDeviation="0.0765625"/>
<feComposite in2="hardAlpha" operator="out"/>
<feColorMatrix type="matrix" values="0 0 0 0 0.513726 0 0 0 0 0.345098 0 0 0 0 0.337255 0 0 0 1 0"/>
<feBlend mode="normal" in2="BackgroundImageFix" result="effect1_dropShadow_0_233"/>
<feColorMatrix in="SourceAlpha" type="matrix" values="0 0 0 0 0 0 0 0 0 0 0 0 0 0 0 0 0 0 127 0" result="hardAlpha"/>
<feOffset dx="-0.153125"/>
<feGaussianBlur stdDeviation="0.0765625"/>
<feComposite in2="hardAlpha" operator="out"/>
<feColorMatrix type="matrix" values="0 0 0 0 0.572549 0 0 0 0 0.407843 0 0 0 0 0.403922 0 0 0 1 0"/>
<feBlend mode="normal" in2="effect1_dropShadow_0_233" result="effect2_dropShadow_0_233"/>
<feColorMatrix in="SourceAlpha" type="matrix" values="0 0 0 0 0 0 0 0 0 0 0 0 0 0 0 0 0 0 127 0" result="hardAlpha"/>
<feOffset dx="0.153125" dy="-0.153125"/>
<feGaussianBlur stdDeviation="0.0765625"/>
<feComposite in2="hardAlpha" operator="out"/>
<feColorMatrix type="matrix" values="0 0 0 0 0.392157 0 0 0 0 0.227451 0 0 0 0 0.301961 0 0 0 1 0"/>
<feBlend mode="normal" in2="effect2_dropShadow_0_233" result="effect3_dropShadow_0_233"/>
<feColorMatrix in="SourceAlpha" type="matrix" values="0 0 0 0 0 0 0 0 0 0 0 0 0 0 0 0 0 0 127 0" result="hardAlpha"/>
<feOffset dy="-0.153125"/>
<feGaussianBlur stdDeviation="0.0765625"/>
<feComposite in2="hardAlpha" operator="out"/>
<feColorMatrix type="matrix" values="0 0 0 0 0.415686 0 0 0 0 0.192157 0 0 0 0 0.360784 0 0 0 1 0"/>
<feBlend mode="normal" in2="effect3_dropShadow_0_233" result="effect4_dropShadow_0_233"/>
<feBlend mode="normal" in="SourceGraphic" in2="effect4_dropShadow_0_233" result="shape"/>
</filter>
<filter id="filter5_dd_0_233" x="29.1765" y="31.1646" width="17.6407" height="13.3416" filterUnits="userSpaceOnUse" color-interpolation-filters="sRGB">
<feFlood flood-opacity="0" result="BackgroundImageFix"/>
<feColorMatrix in="SourceAlpha" type="matrix" values="0 0 0 0 0 0 0 0 0 0 0 0 0 0 0 0 0 0 127 0" result="hardAlpha"/>
<feOffset dx="0.065625" dy="-0.065625"/>
<feGaussianBlur stdDeviation="0.065625"/>
<feComposite in2="hardAlpha" operator="out"/>
<feColorMatrix type="matrix" values="0 0 0 0 0.8 0 0 0 0 0.407843 0 0 0 0 0.360784 0 0 0 1 0"/>
<feBlend mode="normal" in2="BackgroundImageFix" result="effect1_dropShadow_0_233"/>
<feColorMatrix in="SourceAlpha" type="matrix" values="0 0 0 0 0 0 0 0 0 0 0 0 0 0 0 0 0 0 127 0" result="hardAlpha"/>
<feOffset dx="-0.065625"/>
<feGaussianBlur stdDeviation="0.065625"/>
<feComposite in2="hardAlpha" operator="out"/>
<feColorMatrix type="matrix" values="0 0 0 0 0.870588 0 0 0 0 0.596078 0 0 0 0 0.490196 0 0 0 1 0"/>
<feBlend mode="normal" in2="effect1_dropShadow_0_233" result="effect2_dropShadow_0_233"/>
<feBlend mode="normal" in="SourceGraphic" in2="effect2_dropShadow_0_233" result="shape"/>
</filter>
<filter id="filter6_d_0_233" x="29.3105" y="31.3615" width="17.3728" height="5.2268" filterUnits="userSpaceOnUse" color-interpolation-filters="sRGB">
<feFlood flood-opacity="0" result="BackgroundImageFix"/>
<feColorMatrix in="SourceAlpha" type="matrix" values="0 0 0 0 0 0 0 0 0 0 0 0 0 0 0 0 0 0 127 0" result="hardAlpha"/>
<feOffset dy="0.065625"/>
<feGaussianBlur stdDeviation="0.0328125"/>
<feComposite in2="hardAlpha" operator="out"/>
<feColorMatrix type="matrix" values="0 0 0 0 0.886275 0 0 0 0 0.639216 0 0 0 0 0.482353 0 0 0 1 0"/>
<feBlend mode="normal" in2="BackgroundImageFix" result="effect1_dropShadow_0_233"/>
<feBlend mode="normal" in="SourceGraphic" in2="effect1_dropShadow_0_233" result="shape"/>
</filter>
<radialGradient id="paint0_radial_0_233" cx="0" cy="0" r="1" gradientUnits="userSpaceOnUse" gradientTransform="translate(48.5555 7.35129) rotate(-146.31) scale(12.4361 8.1514)">
<stop stop-color="#98726F"/>
<stop offset="1" stop-color="#98726F" stop-opacity="0"/>
</radialGradient>
<radialGradient id="paint1_radial_0_233" cx="0" cy="0" r="1" gradientUnits="userSpaceOnUse" gradientTransform="translate(29.1931 11.1137) rotate(-54.8658) scale(15.5283 10.1782)">
<stop stop-color="#7D5952"/>
<stop offset="1" stop-color="#7D5952" stop-opacity="0"/>
</radialGradient>
<linearGradient id="paint2_linear_0_233" x1="37.9969" y1="38.5252" x2="37.9969" y2="64.8333" gradientUnits="userSpaceOnUse">
<stop stop-color="#81505E"/>
<stop offset="1" stop-color="#754759"/>
</linearGradient>
<linearGradient id="paint3_linear_0_233" x1="37.9969" y1="10.0366" x2="37.9969" y2="36.4561" gradientUnits="userSpaceOnUse">
<stop stop-color="#82525B"/>
<stop offset="1" stop-color="#714654"/>
</linearGradient>
<linearGradient id="paint4_linear_0_233" x1="37.9969" y1="36.7037" x2="37.9969" y2="44.3722" gradientUnits="userSpaceOnUse">
<stop stop-color="#D38773"/>
<stop offset="1" stop-color="#D17A55"/>
</linearGradient>
<linearGradient id="paint5_linear_0_233" x1="37.9969" y1="35.9554" x2="37.9969" y2="37.3241" gradientUnits="userSpaceOnUse">
<stop offset="0.333" stop-color="#843E23"/>
<stop offset="1" stop-color="#C46E44" stop-opacity="0"/>
</linearGradient>
<linearGradient id="paint6_linear_0_233" x1="37.9969" y1="33.9079" x2="37.9969" y2="36.457" gradientUnits="userSpaceOnUse">
<stop stop-color="#D89577"/>
<stop offset="1" stop-color="#CB7368"/>
</linearGradient>
</defs>
</svg>
