<svg width="26" height="26" viewBox="0 0 26 26" fill="none" xmlns="http://www.w3.org/2000/svg">
<circle cx="13" cy="13" r="12.5" stroke="#E5E7EB"/>
<path d="M13.8111 18.2719L9.15208 13.6267C9.09678 13.5714 9.05752 13.5115 9.03429 13.447C9.01107 13.3825 8.99964 13.3134 9.00001 13.2396C9.00001 13.1659 9.01162 13.0968 9.03485 13.0323C9.05807 12.9677 9.09715 12.9078 9.15208 12.8525L13.8111 8.19355C13.9401 8.06452 14.1014 8 14.2949 8C14.4885 8 14.6544 8.06912 14.7926 8.20737C14.9309 8.34562 15 8.50691 15 8.69124C15 8.87557 14.9309 9.03686 14.7926 9.17511L10.7281 13.2396L14.7926 17.3041C14.9217 17.4332 14.9862 17.5922 14.9862 17.7814C14.9862 17.9705 14.9171 18.134 14.7788 18.2719C14.6406 18.4101 14.4793 18.4792 14.2949 18.4792C14.1106 18.4792 13.9493 18.4101 13.8111 18.2719Z" fill="white"/>
</svg>
