<svg width="26" height="26" viewBox="0 0 26 26" fill="none" xmlns="http://www.w3.org/2000/svg">
<circle cx="13" cy="13" r="12.5" stroke="#E5E7EB"/>
<path d="M12.1889 18.2719L16.8479 13.6267C16.9032 13.5714 16.9425 13.5115 16.9657 13.447C16.9889 13.3825 17.0004 13.3134 17 13.2396C17 13.1659 16.9884 13.0968 16.9652 13.0323C16.9419 12.9677 16.9028 12.9078 16.8479 12.8525L12.1889 8.19355C12.0599 8.06452 11.8986 8 11.7051 8C11.5115 8 11.3456 8.06912 11.2074 8.20737C11.0691 8.34562 11 8.50691 11 8.69124C11 8.87557 11.0691 9.03686 11.2074 9.17511L15.2719 13.2396L11.2074 17.3041C11.0783 17.4332 11.0138 17.5922 11.0138 17.7814C11.0138 17.9705 11.0829 18.134 11.2212 18.2719C11.3594 18.4101 11.5207 18.4792 11.7051 18.4792C11.8894 18.4792 12.0507 18.4101 12.1889 18.2719Z" fill="white"/>
</svg>
