<svg width="55" height="55" viewBox="0 0 55 55" fill="none" xmlns="http://www.w3.org/2000/svg">
<path d="M53.3022 27.1826C53.2638 31.596 52.2606 35.9477 50.3629 39.9326M27.4844 53.0003C24.094 53.0003 20.7368 52.3325 17.6044 51.0351C14.4721 49.7376 11.6259 47.8359 9.22853 45.4385C4.38676 40.5967 1.66669 34.0299 1.66669 27.1826M35.4284 35.1265L27.4844 25.1966H15.5686" stroke="#F9FAFB" stroke-width="3" stroke-linecap="round" stroke-linejoin="round"/>
<path d="M47.3442 51.0144C50.6347 51.0144 53.3022 48.3469 53.3022 45.0565C53.3022 41.766 50.6347 39.0985 47.3442 39.0985C44.0538 39.0985 41.3863 41.766 41.3863 45.0565C41.3863 48.3469 44.0538 51.0144 47.3442 51.0144Z" stroke="#F9FAFB" stroke-width="3" stroke-linecap="round" stroke-linejoin="round"/>
<path d="M3.34235 17.6495C4.20797 15.4862 5.37104 13.4542 6.79795 11.6121M14.4638 4.78037C16.7023 3.48783 19.1275 2.54992 21.6531 2M51.6414 17.6495C50.7758 15.4862 49.6127 13.4542 48.1858 11.6121M40.5199 4.78037C38.2815 3.48783 35.8563 2.54992 33.3307 2" stroke="#F9FAFB" stroke-width="3" stroke-linecap="round" stroke-linejoin="round"/>
</svg>
