<svg width="24" height="25" viewBox="0 0 24 25" fill="none" xmlns="http://www.w3.org/2000/svg">
<path d="M21.41 11.75L12.41 2.75004C12.05 2.39004 11.55 2.17004 11 2.17004H4C2.9 2.17004 2 3.07004 2 4.17004V11.17C2 11.72 2.22 12.22 2.59 12.59L11.59 21.59C11.95 21.95 12.45 22.17 13 22.17C13.55 22.17 14.05 21.95 14.41 21.58L21.41 14.58C21.78 14.22 22 13.72 22 13.17C22 12.62 21.77 12.11 21.41 11.75ZM13 20.18L4 11.17V4.17004H11V4.16004L20 13.16L13 20.18Z" fill="white"/>
<path d="M6.5 8.17004C7.32843 8.17004 8 7.49847 8 6.67004C8 5.84162 7.32843 5.17004 6.5 5.17004C5.67157 5.17004 5 5.84162 5 6.67004C5 7.49847 5.67157 8.17004 6.5 8.17004Z" fill="white"/>
</svg>
