<svg width="24" height="25" viewBox="0 0 24 25" fill="none" xmlns="http://www.w3.org/2000/svg">
<path d="M10.95 18.52L7.4 14.97L8.85 13.52L10.95 15.62L15.15 11.42L16.6 12.87L10.95 18.52ZM5 22.17C4.45 22.17 3.979 21.974 3.587 21.582C3.195 21.19 2.99934 20.7194 3 20.17V6.17004C3 5.62004 3.196 5.14904 3.588 4.75704C3.98 4.36504 4.45067 4.16938 5 4.17004H6V2.17004H8V4.17004H16V2.17004H18V4.17004H19C19.55 4.17004 20.021 4.36604 20.413 4.75804C20.805 5.15004 21.0007 5.62071 21 6.17004V20.17C21 20.72 20.804 21.191 20.412 21.583C20.02 21.975 19.5493 22.1707 19 22.17H5ZM5 20.17H19V10.17H5V20.17ZM5 8.17004H19V6.17004H5V8.17004Z" fill="white"/>
</svg>
