<svg width="24" height="25" viewBox="0 0 24 25" fill="none" xmlns="http://www.w3.org/2000/svg">
<path d="M17.75 22.17C17.5333 22.17 17.3543 22.099 17.213 21.957C17.0717 21.815 17.0007 21.636 17 21.42C17 21.2034 17.071 21.0244 17.213 20.883C17.355 20.7417 17.534 20.6707 17.75 20.67H19.5V19.92H18.75C18.5333 19.92 18.3543 19.849 18.213 19.707C18.0717 19.565 18.0007 19.386 18 19.17C18 18.9534 18.071 18.7744 18.213 18.633C18.355 18.4917 18.534 18.4207 18.75 18.42H19.5V17.67H17.75C17.5333 17.67 17.3543 17.599 17.213 17.457C17.0717 17.315 17.0007 17.136 17 16.92C17 16.7034 17.071 16.5244 17.213 16.383C17.355 16.2417 17.534 16.1707 17.75 16.17H20C20.2833 16.17 20.521 16.266 20.713 16.458C20.905 16.65 21.0007 16.8874 21 17.17V18.17C21 18.4534 20.904 18.691 20.712 18.883C20.52 19.075 20.2827 19.1707 20 19.17C20.2833 19.17 20.521 19.266 20.713 19.458C20.905 19.65 21.0007 19.8874 21 20.17V21.17C21 21.4534 20.904 21.691 20.712 21.883C20.52 22.075 20.2827 22.1707 20 22.17H17.75ZM17.75 15.17C17.5333 15.17 17.3543 15.099 17.213 14.957C17.0717 14.815 17.0007 14.636 17 14.42V12.42C17 12.1367 17.096 11.899 17.288 11.707C17.48 11.515 17.7173 11.4194 18 11.42H19.5V10.67H17.75C17.5333 10.67 17.3543 10.599 17.213 10.457C17.0717 10.315 17.0007 10.136 17 9.92004C17 9.70338 17.071 9.52438 17.213 9.38304C17.355 9.24171 17.534 9.17071 17.75 9.17004H20C20.2833 9.17004 20.521 9.26604 20.713 9.45804C20.905 9.65004 21.0007 9.88738 21 10.17V11.92C21 12.2034 20.904 12.441 20.712 12.633C20.52 12.825 20.2827 12.9207 20 12.92H18.5V13.67H20.25C20.4667 13.67 20.6457 13.741 20.787 13.883C20.9283 14.025 20.9993 14.204 21 14.42C21 14.6367 20.929 14.8157 20.787 14.957C20.645 15.0984 20.466 15.1694 20.25 15.17H17.75ZM19.25 8.17004C19.0333 8.17004 18.8543 8.09904 18.713 7.95704C18.5717 7.81504 18.5007 7.63604 18.5 7.42004V3.67004H17.75C17.5333 3.67004 17.3543 3.59904 17.213 3.45704C17.0717 3.31504 17.0007 3.13604 17 2.92004C17 2.70338 17.071 2.52438 17.213 2.38304C17.355 2.24171 17.534 2.17071 17.75 2.17004H19.25C19.4667 2.17004 19.6457 2.24104 19.787 2.38304C19.9283 2.52504 19.9993 2.70404 20 2.92004V7.42004C20 7.63671 19.929 7.81571 19.787 7.95704C19.645 8.09838 19.466 8.16938 19.25 8.17004ZM4 19.17C3.71667 19.17 3.479 19.074 3.287 18.882C3.095 18.69 2.99934 18.4527 3 18.17C3 17.8867 3.096 17.649 3.288 17.457C3.48 17.265 3.71734 17.1694 4 17.17H14C14.2833 17.17 14.521 17.266 14.713 17.458C14.905 17.65 15.0007 17.8874 15 18.17C15 18.4534 14.904 18.691 14.712 18.883C14.52 19.075 14.2827 19.1707 14 19.17H4ZM4 13.17C3.71667 13.17 3.479 13.074 3.287 12.882C3.095 12.69 2.99934 12.4527 3 12.17C3 11.8867 3.096 11.649 3.288 11.457C3.48 11.265 3.71734 11.1694 4 11.17H14C14.2833 11.17 14.521 11.266 14.713 11.458C14.905 11.65 15.0007 11.8874 15 12.17C15 12.4534 14.904 12.691 14.712 12.883C14.52 13.075 14.2827 13.1707 14 13.17H4ZM4 7.17004C3.71667 7.17004 3.479 7.07404 3.287 6.88204C3.095 6.69004 2.99934 6.45271 3 6.17004C3 5.88671 3.096 5.64904 3.288 5.45704C3.48 5.26504 3.71734 5.16938 4 5.17004H14C14.2833 5.17004 14.521 5.26604 14.713 5.45804C14.905 5.65004 15.0007 5.88738 15 6.17004C15 6.45338 14.904 6.69104 14.712 6.88304C14.52 7.07504 14.2827 7.17071 14 7.17004H4Z" fill="white"/>
</svg>
