<svg width="24" height="25" viewBox="0 0 24 25" fill="none" xmlns="http://www.w3.org/2000/svg">
<path d="M22.95 14.77C22.8712 14.8291 22.7815 14.8721 22.6861 14.8966C22.5907 14.921 22.4914 14.9264 22.3939 14.9125C22.2964 14.8986 22.2026 14.8656 22.1179 14.8154C22.0331 14.7652 21.9591 14.6988 21.9 14.62C21.448 14.0124 20.8595 13.5194 20.1822 13.1807C19.5048 12.842 18.7573 12.6671 18 12.67C17.8525 12.67 17.7083 12.6265 17.5854 12.545C17.4625 12.4634 17.3664 12.3475 17.3091 12.2116C17.2701 12.1193 17.2501 12.0202 17.2501 11.92C17.2501 11.8199 17.2701 11.7207 17.3091 11.6285C17.3664 11.4926 17.4625 11.3766 17.5854 11.2951C17.7083 11.2135 17.8525 11.17 18 11.17C18.4208 11.17 18.8332 11.0519 19.1903 10.8293C19.5474 10.6066 19.8349 10.2883 20.0201 9.91044C20.2053 9.53259 20.2809 9.11036 20.2382 8.69171C20.1955 8.27307 20.0362 7.87479 19.7785 7.54211C19.5208 7.20944 19.175 6.9557 18.7803 6.80973C18.3856 6.66376 17.9579 6.6314 17.5457 6.71633C17.1336 6.80125 16.7535 7.00006 16.4486 7.29018C16.1438 7.58029 15.9265 7.95007 15.8212 8.35753C15.7966 8.45294 15.7535 8.54257 15.6942 8.6213C15.6349 8.70003 15.5607 8.76631 15.4759 8.81637C15.391 8.86642 15.2971 8.89927 15.1995 8.91304C15.1019 8.9268 15.0026 8.92121 14.9072 8.89659C14.8118 8.87197 14.7221 8.82879 14.6434 8.76953C14.5647 8.71027 14.4984 8.63608 14.4483 8.5512C14.3983 8.46632 14.3654 8.37242 14.3517 8.27484C14.3379 8.17727 14.3435 8.07794 14.3681 7.98253C14.5141 7.41751 14.79 6.89437 15.1738 6.45473C15.5576 6.0151 16.0387 5.6711 16.5788 5.45011C17.1189 5.22912 17.7032 5.13724 18.285 5.18178C18.8669 5.22631 19.4304 5.40604 19.9306 5.70666C20.4308 6.00728 20.8539 6.4205 21.1663 6.91342C21.4787 7.40635 21.6717 7.96538 21.7301 8.54604C21.7884 9.1267 21.7104 9.71296 21.5023 10.2582C21.2942 10.8034 20.9617 11.2925 20.5312 11.6866C21.5511 12.1281 22.4376 12.8289 23.1028 13.7191C23.1619 13.7981 23.2048 13.888 23.2291 13.9836C23.2534 14.0792 23.2586 14.1786 23.2444 14.2763C23.2303 14.3739 23.1969 14.4677 23.1464 14.5525C23.0959 14.6372 23.0291 14.7111 22.95 14.77ZM17.8988 20.545C17.953 20.6304 17.9895 20.7258 18.0059 20.8257C18.0223 20.9255 18.0183 21.0276 17.9943 21.1258C17.9702 21.2241 17.9265 21.3164 17.8658 21.3974C17.8051 21.4783 17.7287 21.5461 17.6411 21.5967C17.5536 21.6473 17.4567 21.6797 17.3562 21.6919C17.2558 21.7041 17.154 21.6959 17.0568 21.6677C16.9597 21.6395 16.8693 21.592 16.791 21.5279C16.7127 21.4639 16.6481 21.3847 16.6012 21.295C16.1288 20.495 15.4559 19.832 14.649 19.3715C13.8421 18.9109 12.9291 18.6687 12 18.6687C11.0709 18.6687 10.1579 18.9109 9.35098 19.3715C8.54408 19.832 7.87121 20.495 7.39875 21.295C7.35186 21.3847 7.28733 21.4639 7.20903 21.5279C7.13074 21.592 7.0403 21.6395 6.94315 21.6677C6.84601 21.6959 6.74416 21.7041 6.64375 21.6919C6.54333 21.6797 6.44643 21.6473 6.35885 21.5967C6.27128 21.5461 6.19485 21.4783 6.13416 21.3974C6.07348 21.3164 6.02979 21.2241 6.00572 21.1258C5.98166 21.0276 5.97771 20.9255 5.99413 20.8257C6.01055 20.7258 6.04698 20.6304 6.10125 20.545C6.82837 19.2957 7.93706 18.3125 9.26437 17.74C8.51749 17.1682 7.96859 16.3767 7.69481 15.4767C7.42104 14.5768 7.43615 13.6137 7.73804 12.7228C8.03993 11.8319 8.61341 11.058 9.37788 10.5099C10.1423 9.9618 11.0593 9.66702 12 9.66702C12.9407 9.66702 13.8577 9.9618 14.6221 10.5099C15.3866 11.058 15.9601 11.8319 16.262 12.7228C16.5638 13.6137 16.579 14.5768 16.3052 15.4767C16.0314 16.3767 15.4825 17.1682 14.7356 17.74C16.0629 18.3125 17.1716 19.2957 17.8988 20.545ZM12 17.17C12.5933 17.17 13.1734 16.9941 13.6667 16.6644C14.1601 16.3348 14.5446 15.8663 14.7716 15.3181C14.9987 14.7699 15.0581 14.1667 14.9424 13.5848C14.8266 13.0028 14.5409 12.4683 14.1213 12.0487C13.7018 11.6291 13.1672 11.3434 12.5853 11.2277C12.0033 11.1119 11.4001 11.1713 10.8519 11.3984C10.3038 11.6255 9.83523 12.01 9.50559 12.5033C9.17595 12.9967 9 13.5767 9 14.17C9 14.9657 9.31607 15.7287 9.87868 16.2913C10.4413 16.854 11.2043 17.17 12 17.17ZM6.75 11.92C6.75 11.7211 6.67098 11.5304 6.53033 11.3897C6.38968 11.249 6.19891 11.17 6 11.17C5.57918 11.17 5.16681 11.0519 4.80972 10.8293C4.45263 10.6066 4.16514 10.2883 3.9799 9.91044C3.79467 9.53259 3.71911 9.11036 3.76181 8.69171C3.80451 8.27307 3.96376 7.87479 4.22148 7.54211C4.47919 7.20944 4.82503 6.9557 5.21972 6.80973C5.61441 6.66376 6.04212 6.6314 6.45428 6.71633C6.86644 6.80125 7.24652 7.00006 7.55135 7.29018C7.85618 7.58029 8.07354 7.95007 8.17875 8.35753C8.22848 8.55022 8.35272 8.71527 8.52414 8.81637C8.69556 8.91746 8.90012 8.94632 9.09281 8.89659C9.28551 8.84686 9.45056 8.72262 9.55165 8.5512C9.65275 8.37978 9.6816 8.17522 9.63187 7.98253C9.48585 7.41751 9.20998 6.89437 8.8262 6.45473C8.44242 6.0151 7.96133 5.6711 7.4212 5.45011C6.88108 5.22912 6.29684 5.13724 5.71496 5.18178C5.13308 5.22631 4.56963 5.40604 4.06943 5.70666C3.56923 6.00728 3.1461 6.4205 2.83371 6.91342C2.52131 7.40635 2.32827 7.96538 2.26994 8.54604C2.21161 9.1267 2.28961 9.71296 2.49773 10.2582C2.70585 10.8034 3.03834 11.2925 3.46875 11.6866C2.44995 12.1286 1.56442 12.8292 0.899999 13.7191C0.840843 13.7979 0.797785 13.8876 0.773284 13.983C0.748784 14.0784 0.74332 14.1777 0.757205 14.2753C0.771091 14.3728 0.804053 14.4667 0.85421 14.5515C0.904367 14.6363 0.970737 14.7104 1.04953 14.7696C1.12832 14.8287 1.218 14.8718 1.31343 14.8963C1.40886 14.9208 1.50819 14.9262 1.60573 14.9124C1.70328 14.8985 1.79713 14.8655 1.88194 14.8153C1.96675 14.7652 2.04084 14.6988 2.1 14.62C2.55205 14.0124 3.14045 13.5194 3.81784 13.1807C4.49522 12.842 5.24267 12.6671 6 12.67C6.19891 12.67 6.38968 12.591 6.53033 12.4504C6.67098 12.3097 6.75 12.1189 6.75 11.92Z" fill="white"/>
</svg>
