<svg width="138" height="138" viewBox="0 0 138 138" fill="none" xmlns="http://www.w3.org/2000/svg">
<g filter="url(#filter0_d_0_794)">
<path d="M74 71C74.2652 71 74.5196 70.8946 74.7071 70.7071C74.8946 70.5196 75 70.2652 75 70C75 69.7348 74.8946 69.4804 74.7071 69.2929C74.5196 69.1054 74.2652 69 74 69C73.7348 69 73.4804 69.1054 73.2929 69.2929C73.1054 69.4804 73 69.7348 73 70C73 70.2652 73.1054 70.5196 73.2929 70.7071C73.4804 70.8946 73.7348 71 74 71ZM74 75C74.2652 75 74.5196 74.8946 74.7071 74.7071C74.8946 74.5196 75 74.2652 75 74C75 73.7348 74.8946 73.4804 74.7071 73.2929C74.5196 73.1054 74.2652 73 74 73C73.7348 73 73.4804 73.1054 73.2929 73.2929C73.1054 73.4804 73 73.7348 73 74C73 74.2652 73.1054 74.5196 73.2929 74.7071C73.4804 74.8946 73.7348 75 74 75ZM70 70C70 70.2652 69.8946 70.5196 69.7071 70.7071C69.5196 70.8946 69.2652 71 69 71C68.7348 71 68.4804 70.8946 68.2929 70.7071C68.1054 70.5196 68 70.2652 68 70C68 69.7348 68.1054 69.4804 68.2929 69.2929C68.4804 69.1054 68.7348 69 69 69C69.2652 69 69.5196 69.1054 69.7071 69.2929C69.8946 69.4804 70 69.7348 70 70ZM70 74C70 74.2652 69.8946 74.5196 69.7071 74.7071C69.5196 74.8946 69.2652 75 69 75C68.7348 75 68.4804 74.8946 68.2929 74.7071C68.1054 74.5196 68 74.2652 68 74C68 73.7348 68.1054 73.4804 68.2929 73.2929C68.4804 73.1054 68.7348 73 69 73C69.2652 73 69.5196 73.1054 69.7071 73.2929C69.8946 73.4804 70 73.7348 70 74ZM64 71C64.2652 71 64.5196 70.8946 64.7071 70.7071C64.8946 70.5196 65 70.2652 65 70C65 69.7348 64.8946 69.4804 64.7071 69.2929C64.5196 69.1054 64.2652 69 64 69C63.7348 69 63.4804 69.1054 63.2929 69.2929C63.1054 69.4804 63 69.7348 63 70C63 70.2652 63.1054 70.5196 63.2929 70.7071C63.4804 70.8946 63.7348 71 64 71ZM64 75C64.2652 75 64.5196 74.8946 64.7071 74.7071C64.8946 74.5196 65 74.2652 65 74C65 73.7348 64.8946 73.4804 64.7071 73.2929C64.5196 73.1054 64.2652 73 64 73C63.7348 73 63.4804 73.1054 63.2929 73.2929C63.1054 73.4804 63 73.7348 63 74C63 74.2652 63.1054 74.5196 63.2929 74.7071C63.4804 74.8946 63.7348 75 64 75Z" fill="white"/>
<path fill-rule="evenodd" clip-rule="evenodd" d="M64 58.75C64.1989 58.75 64.3897 58.829 64.5303 58.9697C64.671 59.1103 64.75 59.3011 64.75 59.5V60.263C65.412 60.25 66.141 60.25 66.943 60.25H71.056C71.859 60.25 72.588 60.25 73.25 60.263V59.5C73.25 59.3011 73.329 59.1103 73.4697 58.9697C73.6103 58.829 73.8011 58.75 74 58.75C74.1989 58.75 74.3897 58.829 74.5303 58.9697C74.671 59.1103 74.75 59.3011 74.75 59.5V60.327C75.01 60.347 75.256 60.372 75.489 60.403C76.661 60.561 77.61 60.893 78.359 61.641C79.107 62.39 79.439 63.339 79.597 64.511C79.75 65.651 79.75 67.106 79.75 68.944V71.056C79.75 72.894 79.75 74.35 79.597 75.489C79.439 76.661 79.107 77.61 78.359 78.359C77.61 79.107 76.661 79.439 75.489 79.597C74.349 79.75 72.894 79.75 71.056 79.75H66.944C65.106 79.75 63.65 79.75 62.511 79.597C61.339 79.439 60.39 79.107 59.641 78.359C58.893 77.61 58.561 76.661 58.403 75.489C58.25 74.349 58.25 72.894 58.25 71.056V68.944C58.25 67.106 58.25 65.65 58.403 64.511C58.561 63.339 58.893 62.39 59.641 61.641C60.39 60.893 61.339 60.561 62.511 60.403C62.744 60.372 62.991 60.347 63.25 60.327V59.5C63.25 59.3011 63.329 59.1103 63.4697 58.9697C63.6103 58.829 63.8011 58.75 64 58.75ZM62.71 61.89C61.705 62.025 61.125 62.279 60.702 62.702C60.279 63.125 60.025 63.705 59.89 64.711C59.867 64.881 59.848 65.061 59.832 65.25H78.168C78.152 65.06 78.133 64.881 78.11 64.71C77.975 63.705 77.721 63.125 77.298 62.702C76.875 62.279 76.295 62.025 75.289 61.89C74.262 61.752 72.907 61.75 71 61.75H67C65.093 61.75 63.739 61.752 62.71 61.89ZM59.75 69C59.75 68.146 59.75 67.403 59.763 66.75H78.237C78.25 67.403 78.25 68.146 78.25 69V71C78.25 72.907 78.248 74.262 78.11 75.29C77.975 76.295 77.721 76.875 77.298 77.298C76.875 77.721 76.295 77.975 75.289 78.11C74.262 78.248 72.907 78.25 71 78.25H67C65.093 78.25 63.739 78.248 62.71 78.11C61.705 77.975 61.125 77.721 60.702 77.298C60.279 76.875 60.025 76.295 59.89 75.289C59.752 74.262 59.75 72.907 59.75 71V69Z" fill="white"/>
</g>
<defs>
<filter id="filter0_d_0_794" x="0.25" y="0.75" width="137.5" height="137" filterUnits="userSpaceOnUse" color-interpolation-filters="sRGB">
<feFlood flood-opacity="0" result="BackgroundImageFix"/>
<feColorMatrix in="SourceAlpha" type="matrix" values="0 0 0 0 0 0 0 0 0 0 0 0 0 0 0 0 0 0 127 0" result="hardAlpha"/>
<feOffset/>
<feGaussianBlur stdDeviation="29"/>
<feComposite in2="hardAlpha" operator="out"/>
<feColorMatrix type="matrix" values="0 0 0 0 0 0 0 0 0 0 0 0 0 0 0 0 0 0 1 0"/>
<feBlend mode="normal" in2="BackgroundImageFix" result="effect1_dropShadow_0_794"/>
<feBlend mode="normal" in="SourceGraphic" in2="effect1_dropShadow_0_794" result="shape"/>
</filter>
</defs>
</svg>
