<svg width="14" height="14" viewBox="0 0 14 14" fill="none" xmlns="http://www.w3.org/2000/svg">
<g clip-path="url(#clip0_0_126)">
<path d="M7.04 6.96003L0.5 13.5M12.64 1.87003L11.8 4.35002C11.771 4.40738 11.7559 4.47075 11.7559 4.53503C11.7559 4.5993 11.771 4.66267 11.8 4.72003L13.37 6.82003C13.4151 6.88013 13.4424 6.95173 13.4487 7.02663C13.455 7.10152 13.4401 7.17667 13.4056 7.24347C13.3712 7.31027 13.3186 7.36601 13.2539 7.40431C13.1893 7.44261 13.1151 7.46192 13.04 7.46003H10.42C10.3558 7.46191 10.2928 7.47816 10.2357 7.50758C10.1786 7.537 10.1288 7.57884 10.09 7.63003L8.63 9.73002C8.58718 9.79141 8.52799 9.83955 8.45917 9.86897C8.39035 9.89839 8.31466 9.90792 8.24069 9.89646C8.16673 9.885 8.09747 9.85302 8.04077 9.80415C7.98408 9.75528 7.94224 9.69149 7.92 9.62002L7.14 7.12003C7.1222 7.05823 7.08901 7.00196 7.04354 6.95648C6.99807 6.91101 6.9418 6.87782 6.88 6.86003L4.38 6.08003C4.30853 6.05779 4.24474 6.01594 4.19588 5.95925C4.14701 5.90256 4.11503 5.8333 4.10357 5.75933C4.09211 5.68537 4.10163 5.60967 4.13105 5.54085C4.16047 5.47203 4.20861 5.41285 4.27 5.37003L6.41 3.86002C6.46119 3.82121 6.50303 3.77142 6.53244 3.71431C6.56186 3.65721 6.57811 3.59424 6.58 3.53003V0.910025C6.58279 0.84121 6.60331 0.774282 6.63955 0.71572C6.6758 0.657159 6.72656 0.608949 6.7869 0.575759C6.84725 0.542568 6.91514 0.525521 6.98401 0.526269C7.05288 0.527016 7.12039 0.545533 7.18 0.580025L9.28 2.15003C9.33331 2.18705 9.39465 2.21089 9.45898 2.21959C9.5233 2.22828 9.58877 2.22157 9.65 2.20003L12.13 1.36003C12.2011 1.33503 12.2779 1.33064 12.3514 1.34737C12.4249 1.36409 12.4922 1.40125 12.5455 1.45455C12.5988 1.50786 12.6359 1.57515 12.6527 1.64866C12.6694 1.72216 12.665 1.7989 12.64 1.87003Z" stroke="white" stroke-linecap="round" stroke-linejoin="round"/>
</g>
<defs>
<clipPath id="clip0_0_126">
<rect width="14" height="14" fill="white"/>
</clipPath>
</defs>
</svg>
