<svg width="136" height="135" viewBox="0 0 136 135" fill="none" xmlns="http://www.w3.org/2000/svg">
<g filter="url(#filter0_d_0_800)">
<path d="M64 64H72M64 68H70M74 59C74.7956 59 75.5587 59.3161 76.1213 59.8787C76.6839 60.4413 77 61.2044 77 62V70C77 70.7956 76.6839 71.5587 76.1213 72.1213C75.5587 72.6839 74.7956 73 74 73H69L64 76V73H62C61.2044 73 60.4413 72.6839 59.8787 72.1213C59.3161 71.5587 59 70.7956 59 70V62C59 61.2044 59.3161 60.4413 59.8787 59.8787C60.4413 59.3161 61.2044 59 62 59H74Z" stroke="white" stroke-width="2" stroke-linecap="round" stroke-linejoin="round" shape-rendering="crispEdges"/>
</g>
<defs>
<filter id="filter0_d_0_800" x="0" y="0" width="136" height="135" filterUnits="userSpaceOnUse" color-interpolation-filters="sRGB">
<feFlood flood-opacity="0" result="BackgroundImageFix"/>
<feColorMatrix in="SourceAlpha" type="matrix" values="0 0 0 0 0 0 0 0 0 0 0 0 0 0 0 0 0 0 127 0" result="hardAlpha"/>
<feOffset/>
<feGaussianBlur stdDeviation="29"/>
<feComposite in2="hardAlpha" operator="out"/>
<feColorMatrix type="matrix" values="0 0 0 0 0 0 0 0 0 0 0 0 0 0 0 0 0 0 1 0"/>
<feBlend mode="normal" in2="BackgroundImageFix" result="effect1_dropShadow_0_800"/>
<feBlend mode="normal" in="SourceGraphic" in2="effect1_dropShadow_0_800" result="shape"/>
</filter>
</defs>
</svg>
