<svg width="80" height="73" viewBox="0 0 80 73" fill="none" xmlns="http://www.w3.org/2000/svg">
<g clip-path="url(#clip0_0_166)">
<path d="M21.9442 42.6003C19.9015 35.3706 25.157 26.9447 34.9862 19.7249C22.1995 27.2642 14.8269 36.9755 17.1225 45.0993C20.4716 56.9506 43.1248 60.9332 67.7215 53.9958C68.9362 53.654 70.1336 53.29 71.3111 52.9085C46.9772 58.7908 25.2883 54.4367 21.9442 42.6027V42.6003Z" fill="#00DBA4"/>
<path d="M23.2977 42.1024C21.6615 36.3142 24.5397 29.944 30.343 24.7478C22.7027 30.0505 18.5628 37.3297 20.3997 43.8312C23.0795 53.3172 37.4677 57.5624 52.5351 53.3122C53.2788 53.1017 54.0126 52.8763 54.7315 52.6336C39.7781 56.0664 25.975 51.576 23.2977 42.1024Z" fill="#F9F9FA"/>
<path d="M41.6473 65.441C41.3474 65.5623 41.0102 65.4261 40.8937 65.1388L27.1377 31.5416L28.226 31.1032L41.982 64.6954C42.101 64.9852 41.9522 65.3196 41.6498 65.441H41.6473Z" fill="#F9F9FA"/>
<path d="M21.8946 16.7305C21.8946 16.7305 4.92828 31.2146 1.05112 34.6202C0.733803 34.9 0.334683 35.0982 0.242959 35.4251C-0.852761 39.2938 2.08486 40.4678 2.73436 37.622C2.77402 37.4486 3.00209 37.3743 3.12852 37.2307C7.60809 33.8672 21.8946 16.7281 21.8946 16.7281V16.7305Z" fill="#1A4685"/>
<path d="M0.242987 35.4276C-0.840339 39.2542 2.02043 40.4406 2.71208 37.7136L0.262819 35.3855C0.257861 35.4003 0.247945 35.4127 0.245466 35.4276H0.242987Z" fill="#1A4685"/>
<path d="M21.8946 16.7305C21.8946 16.7305 4.8316 34.5781 2.65503 37.0127C2.5881 37.087 2.41705 37.3 2.36499 37.3941C1.48246 38.9619 2.74675 42.7514 7.16682 40.4926C8.45343 39.8362 8.66414 37.4461 8.66414 37.4461L21.8971 16.7305H21.8946Z" fill="#00DBA4"/>
<path d="M7.78657 40.4009L8.52531 38.3031L2.36499 37.3966C0.793295 40.8022 5.9174 42.8876 7.78657 40.4009Z" fill="#06B9B4"/>
<path d="M21.8946 16.7305C21.8946 16.7305 10.2904 33.4883 7.21643 38.1595C7.21643 38.1595 10.5532 45.4758 16.7705 37.8375C22.9879 30.2016 21.8946 16.7305 21.8946 16.7305Z" fill="#1A4685"/>
<path d="M7.21891 38.1595C7.06025 41.0672 12.7124 44.5644 16.773 37.8375C17.1275 37.2505 17.601 36.7452 17.9654 36.1657L7.33542 37.9836C7.29575 38.043 7.22386 38.0926 7.21891 38.1595Z" fill="#1A4685"/>
<path d="M21.8946 16.7305C21.8946 16.7305 26.9641 29.2728 28.3499 32.7007C29.7357 36.1285 19.2321 40.3662 16.9465 38.0802C14.6608 35.7941 21.8946 16.7305 21.8946 16.7305Z" fill="#00DBA4"/>
<path d="M16.5027 36.4183C16.5151 37.2034 16.6515 37.783 16.9465 38.0802C19.2321 40.3662 29.7357 36.1285 28.3499 32.7007C28.3375 32.671 28.3251 32.6388 28.3127 32.609L16.5027 36.4183Z" fill="#06B9B4"/>
<path d="M21.8946 16.7305C21.8946 16.7305 44.1709 15.3782 49.3272 15.1405C49.7512 15.1206 50.1751 14.9894 50.4676 15.1603C53.9456 17.1813 52.6466 20.0667 50.2023 18.4692C50.0536 18.3701 49.8404 18.4766 49.647 18.4618C44.0866 19.1503 21.8921 16.7305 21.8921 16.7305H21.8946Z" fill="#00DBA4"/>
<path d="M50.47 15.1603C53.9109 17.1615 52.6764 20.0023 50.2841 18.5163L50.4279 15.1404C50.4428 15.1479 50.4576 15.1503 50.47 15.1603Z" fill="#06B9B4"/>
<path d="M21.8946 16.7305C21.8946 16.7305 46.5781 17.7311 49.8379 17.9739C49.9396 17.9813 50.2098 18.016 50.3114 18.0457C52.0368 18.5633 53.7597 22.1645 49.01 23.6085C47.6292 24.0271 45.8145 22.4543 45.8145 22.4543L21.8946 16.7305Z" fill="#1A4685"/>
<path d="M48.4992 23.9726L46.5086 22.9744L50.3114 18.0482C53.8093 19.4079 51.5707 24.463 48.4992 23.9726Z" fill="#1A4685"/>
<path d="M21.8946 16.7305C21.8946 16.7305 41.8927 20.7379 47.349 21.9639C47.349 21.9639 50.0338 29.5403 40.2516 28.3614C30.4694 27.1825 21.8921 16.7305 21.8921 16.7305H21.8946Z" fill="#00DBA4"/>
<path d="M47.3515 21.9664C49.4859 23.9478 47.8497 30.3874 40.2541 28.3639C39.5922 28.188 38.8981 28.1533 38.2312 27.9874L47.1432 21.9193C47.2126 21.9342 47.2994 21.9193 47.349 21.9664H47.3515Z" fill="#06B9B4"/>
<path d="M21.8946 16.7305C21.8946 16.7305 26.9642 29.2728 28.3499 32.7007C29.7357 36.1285 40.2392 31.8908 40.2963 28.6586C40.3533 25.4264 21.8946 16.7305 21.8946 16.7305Z" fill="#1A4685"/>
<path d="M39.4608 27.1552C39.9963 27.7273 40.3037 28.24 40.2963 28.6586C40.2417 31.8908 29.7382 36.1285 28.3499 32.7007C28.3375 32.671 28.3251 32.6388 28.3127 32.609L39.4584 27.1552H39.4608Z" fill="#1A4685"/>
<path d="M62.5602 33.6592C62.5602 32.448 63.2419 31.3335 64.3277 30.7961C71.6829 27.1626 77.0351 16.0123 77.0202 2.83096H41.2457C41.2308 16.0148 46.583 27.1626 53.9382 30.7961C55.024 31.3335 55.7057 32.448 55.7057 33.6592C55.7057 34.8703 55.024 35.9849 53.9382 36.5223C46.583 40.1557 41.2308 51.3061 41.2457 64.4874H77.0202C77.0351 51.3036 71.6829 40.1557 64.3277 36.5223C63.2419 35.9849 62.5602 34.8703 62.5602 33.6592Z" fill="#C2D5F5"/>
<path d="M62.5602 33.6592C62.5602 32.448 63.2419 31.3335 64.3277 30.7961C71.6829 27.1626 77.0351 16.0123 77.0202 2.83096H41.2457C41.2308 16.0148 46.583 27.1626 53.9382 30.7961C55.024 31.3335 55.7057 32.448 55.7057 33.6592C55.7057 34.8703 55.024 35.9849 53.9382 36.5223C46.583 40.1557 41.2308 51.3061 41.2457 64.4874H77.0202C77.0351 51.3036 71.6829 40.1557 64.3277 36.5223C63.2419 35.9849 62.5602 34.8703 62.5602 33.6592Z" fill="#00DBA4"/>
<path d="M45.6062 19.0537C45.6062 19.0537 59.1986 44.1384 71.5242 19.1776C71.5242 19.1776 65.6589 10.6699 57.9319 19.0537C50.2048 27.4376 45.6038 19.0537 45.6038 19.0537H45.6062Z" fill="#F9F9FA"/>
<path d="M45.8368 19.5119C45.8368 19.5119 58.6334 46.2733 71.4301 19.4252C71.4301 19.4252 65.892 11.1306 58.1649 19.5119C50.4378 27.8958 45.8368 19.5119 45.8368 19.5119Z" fill="#1A4685"/>
<g style="mix-blend-mode:screen" opacity="0.43">
<path d="M66.8092 7.29657H70.9838C70.9838 7.29657 73.2943 16.9782 63.9781 25.689C63.9781 25.689 71.0582 15.2643 66.8117 7.29657H66.8092Z" fill="#D4E3F9"/>
</g>
<path d="M63.408 52.3463C67.6645 53.2528 71.4995 50.5284 73.1331 52.5767C73.3389 52.8342 73.5199 53.1785 74.0058 57.342C74.2016 59.0261 74.3429 60.4107 74.4297 61.3419C64.2236 61.4509 54.0274 61.4633 43.8239 61.5723C43.9652 59.4794 43.8957 56.7401 44.7213 53.2652C45.3038 50.8107 47.5845 41.835 51.5707 41.5427C55.5917 41.248 56.4569 50.8727 63.4055 52.3513L63.408 52.3463Z" fill="#F9F9FA"/>
<path d="M63.408 53.0373C67.6645 53.9438 71.4995 51.2194 73.1331 53.2677C73.3389 53.5253 73.5199 53.8695 74.0058 58.033C74.2016 59.7172 74.3429 61.1017 74.4297 62.0329C64.2236 62.1419 54.0274 62.1543 43.8239 62.2633C43.9652 60.1704 43.8957 57.4311 44.7213 53.9562C45.3038 51.5017 47.5845 42.526 51.5707 42.2337C55.5917 41.939 56.4569 51.5637 63.4055 53.0423L63.408 53.0373Z" fill="#1A4685"/>
<path d="M57.9393 30.5608H60.3241V39.0016C60.3241 39.3458 60.044 39.6282 59.6969 39.6282H58.564C58.2194 39.6282 57.9368 39.3483 57.9368 39.0016V30.5608H57.9393Z" fill="#1A4685"/>
<path d="M58.5665 42.5433H59.6994C60.044 42.5433 60.3266 42.8232 60.3266 43.1699V53.5153H57.9418V43.1699C57.9418 42.8257 58.2219 42.5433 58.569 42.5433H58.5665Z" fill="#1A4685"/>
<path d="M59.1293 42.1569C59.7221 42.1569 60.2027 41.6768 60.2027 41.0845C60.2027 40.4922 59.7221 40.0121 59.1293 40.0121C58.5364 40.0121 58.0558 40.4922 58.0558 41.0845C58.0558 41.6768 58.5364 42.1569 59.1293 42.1569Z" fill="#1A4685"/>
<path d="M57.9393 33.575C57.9393 33.5403 57.9344 33.5106 57.9319 33.4709C57.9195 33.1589 57.8203 32.7601 57.6889 32.4109C57.5947 32.1979 57.3568 31.8437 57.2254 31.6579C57.1708 31.5787 57.1039 31.5069 57.0295 31.4449L56.3726 30.9075L56.1891 30.8035L58.1376 31.1849L57.9368 33.575H57.9393Z" fill="#1A4685"/>
<path d="M60.3241 33.5229C60.3291 33.4883 60.4282 32.8988 60.4357 32.8616C60.5001 32.5669 60.6786 32.1112 60.9116 31.8189C61.0777 31.6109 61.3653 31.3805 61.5314 31.2418C61.6058 31.1799 61.6653 31.1031 61.7471 31.0487L62.8725 30.375L63.4204 30.0406L60.0291 31.1329L60.3216 33.5229H60.3241Z" fill="#1A4685"/>
<path d="M56.1718 36.5223C57.2576 35.9849 57.9393 34.8703 57.9393 33.6592C57.9393 32.448 57.2576 31.3335 56.1718 30.7961C48.8166 27.1626 43.9875 16.0123 44.0024 2.83096H41.2457C41.2308 16.0148 46.583 27.1626 53.9382 30.7961C55.024 31.3335 55.7057 32.448 55.7057 33.6592C55.7057 34.8703 55.024 35.9849 53.9382 36.5223C46.583 40.1557 41.2308 51.3061 41.2457 64.4874H44.0024C43.9875 51.3036 48.8166 40.1557 56.1718 36.5223Z" fill="#F9F9FA"/>
<path d="M64.3277 36.5223C63.2419 35.9849 62.5602 34.8703 62.5602 33.6592C62.5602 32.448 63.2419 31.3335 64.3277 30.7961C71.6829 27.1626 77.0351 16.0123 77.0202 2.83096H74.4123C74.4272 16.0148 69.4493 27.1626 62.0941 30.7961C61.0083 31.3335 60.3266 32.448 60.3266 33.6592C60.3266 34.8703 61.0083 35.9849 62.0941 36.5223C69.4493 40.1557 74.4297 51.3061 74.4123 64.4874H77.0202C77.0351 51.3036 71.6829 40.1557 64.3277 36.5223Z" fill="#F9F9FA"/>
<path d="M78.2127 3.57397H40.0508C39.0617 3.57397 38.261 2.77398 38.261 1.78575C38.261 0.797521 39.0617 -0.00247192 40.0508 -0.00247192H78.2127C79.2018 -0.00247192 80.0025 0.797521 80.0025 1.78575C80.0025 2.77398 79.2018 3.57397 78.2127 3.57397Z" fill="#F9F9FA"/>
<path d="M78.2127 65.6044H40.0508C39.0617 65.6044 38.261 64.8044 38.261 63.8162C38.261 62.828 39.0617 62.028 40.0508 62.028H78.2127C79.2018 62.028 80.0025 62.828 80.0025 63.8162C80.0025 64.8044 79.2018 65.6044 78.2127 65.6044Z" fill="#F9F9FA"/>
<path d="M24.7826 70.3003L25.8064 68.7053L35.7844 70.8304L34.3912 73L36.0968 72.792L39.7459 67.0855L43.3603 68.475C44.3618 68.2174 43.7594 67.5833 43.7594 67.5833L40.2689 66.2657L40.8094 65.4137C41.2556 65.166 41.7192 64.8564 42.1877 64.4775L56.2213 69.8719C56.4593 69.9635 56.7271 69.8644 56.8485 69.6391C56.9923 69.3716 56.8659 69.0397 56.5833 68.9307L52.1136 67.2242L50.7675 49.8299L54.1935 44.4727C54.1935 44.4727 53.8861 43.5563 52.9813 44.0195L52.5202 44.7352L41.4737 44.3266L41.7687 43.8684C41.7687 43.8684 41.4638 42.952 40.559 43.4126L29.5497 60.4676L23.0993 59.732C23.0993 59.732 22.0507 59.6602 22.7895 60.4354L24.5025 68.2942L23.0721 70.5084L24.7801 70.3003H24.7826ZM25.3453 66.9914C24.8272 64.8639 23.7885 60.6608 23.6422 60.5295L24.8694 60.6682C25.1768 61.3865 25.9477 62.9716 27.1971 64.1233L25.3478 66.9914H25.3453ZM30.995 60.6336L38.7543 48.5594C38.6328 48.9928 38.5138 49.4708 38.4047 49.9934C37.3784 54.9246 33.5161 59.685 32.5047 60.7797L32.4402 60.7945L30.9925 60.6311L30.995 60.6336ZM51.1468 66.8552L42.9934 63.7493C43.8288 62.9147 44.6543 61.8323 45.4005 60.4156C45.4005 60.4156 48.2117 55.6949 49.4115 51.9575L49.9296 51.1451L51.1468 66.8577V66.8552ZM37.3313 66.4539C37.6015 66.444 38.0924 66.4069 38.7196 66.2484L37.4627 68.205L37.3313 66.4539ZM26.2973 67.9375L28.2532 64.901C28.6573 65.1289 29.0961 65.2998 29.572 65.3914C29.572 65.3914 34.0764 66.0453 36.3843 66.3598L36.6298 69.5152L36.3149 70.0007L26.2997 67.9375H26.2973Z" fill="#F9F9FA"/>
<path d="M30.995 60.6336L31.2479 60.6608V60.6658L29.3291 60.4478V60.4428L29.5522 60.4701L40.5615 43.4151C41.4638 42.9544 41.7712 43.8708 41.7712 43.8708L41.4762 44.329C41.4762 44.329 39.6294 44.703 38.7543 48.5643L30.995 60.6385V60.6336Z" fill="#1A4685"/>
<path d="M39.7855 65.8967L40.4152 66.0354L40.2714 66.2632L43.7619 67.5809C43.7619 67.5809 44.3618 68.2124 43.3628 68.4725L39.7484 67.083L39.3021 67.7815L38.6452 67.1251L39.788 65.8967H39.7855Z" fill="#1A4685"/>
<path d="M24.8694 60.6682L24.2397 60.5939L24.0612 60.215L36.1117 61.9091C36.8033 65.6787 39.7831 65.8942 39.7831 65.8942L38.7171 66.2459C38.0899 66.4044 37.5991 66.4416 37.3289 66.4515L36.3819 66.3573C34.0739 66.0428 29.5696 65.3889 29.5696 65.3889C29.0936 65.2998 28.6548 65.1264 28.2309 64.9456L27.7599 64.7029L27.1749 64.1654C25.9453 62.9691 25.1718 61.3865 24.8669 60.6682H24.8694Z" fill="#00DBA4"/>
<path d="M35.7844 70.8304L35.767 70.8254L36.3 69.9957L36.3149 70.0007L36.6297 69.5152V69.488L37.4652 68.1827V68.2075L38.7195 66.2508C38.7121 66.2508 38.7121 66.2508 38.7047 66.2558L52.5251 44.7377L52.9862 44.0219C53.8911 43.5613 54.1985 44.4752 54.1985 44.4752L50.7725 49.8324L50.7824 49.9711L49.942 51.2764L49.9321 51.1451L49.414 51.9575C49.3817 52.0565 49.347 52.1606 49.3123 52.2621L40.8713 65.3865C40.8515 65.3964 40.8341 65.4112 40.8143 65.4187L40.2739 66.2707L40.2937 66.2781L39.7682 67.0954L39.7483 67.088L36.0992 72.7944L34.3937 73.0025L35.7869 70.8328L35.7844 70.8304Z" fill="#1A4685"/>
<path d="M22.7944 60.4354L24.5074 68.2942L23.077 70.5084L24.7851 70.3004L25.8089 68.7053L35.7869 70.8304L35.296 71.5932L36.9396 71.4768L38.2535 69.4236L37.6114 67.9871L37.4676 68.2075L37.4205 67.5635V67.5586L37.3487 66.5803L37.3363 66.4589L37.0016 62.0082L36.1141 61.9165L36.3868 66.3648L36.6322 69.5202L36.3174 70.0056L26.3022 67.9425L28.2383 64.9506C27.6483 64.6484 27.3161 64.3289 27.1822 64.1704L25.3503 66.9939C24.8322 64.8663 23.7934 60.6633 23.6472 60.532L24.3215 60.6088C24.2298 60.428 24.143 60.2868 24.0661 60.2199C23.615 59.8237 22.6407 60.1134 22.6407 60.1134C22.6407 60.1134 22.6308 60.1506 22.611 60.2026C22.6556 60.272 22.7151 60.3487 22.7994 60.4379L22.7944 60.4354Z" fill="#1A4685"/>
<path d="M23.1018 59.732L29.5522 60.4676L29.8051 60.0763L31.1313 60.4205L30.995 60.6336L32.4427 60.797L32.5072 60.7822L36.2901 61.3741L42.1059 63.3456L41.4217 64.1035L36.1042 62.2583L24.8817 60.7029C24.8817 60.7029 24.8693 60.6806 24.8669 60.6732L23.7885 60.5518L22.7647 60.4106C22.0829 59.6676 23.0993 59.737 23.0993 59.737L23.1018 59.732Z" fill="#1A4685"/>
<path d="M41.0176 63.945L41.4836 63.1351L43.0033 63.7369C43.0033 63.7369 42.9958 63.7444 42.9933 63.7468L51.1468 66.8527L49.9296 51.1401L49.6123 51.6404C49.6172 51.0584 49.6197 50.6423 49.6197 50.6423L50.5345 48.7327L51.0204 49.4361L50.77 49.8275L52.1161 67.2217L56.5857 68.9282C56.8683 69.0372 56.9948 69.3691 56.851 69.6366C56.732 69.862 56.4618 69.961 56.2238 69.8694L42.1901 64.475L41.0176 63.945Z" fill="#1A4685"/>
</g>
<defs>
<clipPath id="clip0_0_166">
<rect width="80" height="73" fill="white"/>
</clipPath>
</defs>
</svg>
