<svg width="14" height="14" viewBox="0 0 14 14" fill="none" xmlns="http://www.w3.org/2000/svg">
<path d="M9.91666 4.08335H4.08332C3.92861 4.08335 3.78024 4.14481 3.67084 4.25421C3.56145 4.3636 3.49999 4.51198 3.49999 4.66669C3.49999 4.8214 3.56145 4.96977 3.67084 5.07917C3.78024 5.18856 3.92861 5.25002 4.08332 5.25002H9.91666C10.0714 5.25002 10.2197 5.18856 10.3291 5.07917C10.4385 4.96977 10.5 4.8214 10.5 4.66669C10.5 4.51198 10.4385 4.3636 10.3291 4.25421C10.2197 4.14481 10.0714 4.08335 9.91666 4.08335ZM9.91666 6.41669H4.08332C3.92861 6.41669 3.78024 6.47815 3.67084 6.58754C3.56145 6.69694 3.49999 6.84531 3.49999 7.00002C3.49999 7.15473 3.56145 7.3031 3.67084 7.4125C3.78024 7.5219 3.92861 7.58335 4.08332 7.58335H9.91666C10.0714 7.58335 10.2197 7.5219 10.3291 7.4125C10.4385 7.3031 10.5 7.15473 10.5 7.00002C10.5 6.84531 10.4385 6.69694 10.3291 6.58754C10.2197 6.47815 10.0714 6.41669 9.91666 6.41669ZM11.0833 1.16669H2.91666C2.45253 1.16669 2.00741 1.35106 1.67922 1.67925C1.35103 2.00744 1.16666 2.45256 1.16666 2.91669V8.75002C1.16666 9.21415 1.35103 9.65927 1.67922 9.98746C2.00741 10.3156 2.45253 10.5 2.91666 10.5H9.67749L11.8358 12.6642C11.8903 12.7183 11.955 12.761 12.026 12.7901C12.0971 12.8191 12.1732 12.8338 12.25 12.8334C12.3265 12.8353 12.4024 12.8193 12.4717 12.7867C12.5782 12.7429 12.6694 12.6686 12.7337 12.5731C12.7981 12.4776 12.8327 12.3652 12.8333 12.25V2.91669C12.8333 2.45256 12.6489 2.00744 12.3208 1.67925C11.9926 1.35106 11.5475 1.16669 11.0833 1.16669ZM11.6667 10.8442L10.3308 9.50252C10.2763 9.44846 10.2117 9.40568 10.1406 9.37665C10.0695 9.34762 9.99343 9.33291 9.91666 9.33335H2.91666C2.76195 9.33335 2.61357 9.2719 2.50418 9.1625C2.39478 9.0531 2.33332 8.90473 2.33332 8.75002V2.91669C2.33332 2.76198 2.39478 2.6136 2.50418 2.50421C2.61357 2.39481 2.76195 2.33335 2.91666 2.33335H11.0833C11.238 2.33335 11.3864 2.39481 11.4958 2.50421C11.6052 2.6136 11.6667 2.76198 11.6667 2.91669V10.8442Z" fill="#6B7280"/>
</svg>
