<svg width="14" height="14" viewBox="0 0 14 14" fill="none" xmlns="http://www.w3.org/2000/svg">
<path d="M9.91666 4.08329H4.08332C3.92861 4.08329 3.78024 4.14475 3.67084 4.25415C3.56145 4.36354 3.49999 4.51192 3.49999 4.66663C3.49999 4.82134 3.56145 4.96971 3.67084 5.0791C3.78024 5.1885 3.92861 5.24996 4.08332 5.24996H9.91666C10.0714 5.24996 10.2197 5.1885 10.3291 5.0791C10.4385 4.96971 10.5 4.82134 10.5 4.66663C10.5 4.51192 10.4385 4.36354 10.3291 4.25415C10.2197 4.14475 10.0714 4.08329 9.91666 4.08329ZM9.91666 6.41663H4.08332C3.92861 6.41663 3.78024 6.47808 3.67084 6.58748C3.56145 6.69688 3.49999 6.84525 3.49999 6.99996C3.49999 7.15467 3.56145 7.30304 3.67084 7.41244C3.78024 7.52183 3.92861 7.58329 4.08332 7.58329H9.91666C10.0714 7.58329 10.2197 7.52183 10.3291 7.41244C10.4385 7.30304 10.5 7.15467 10.5 6.99996C10.5 6.84525 10.4385 6.69688 10.3291 6.58748C10.2197 6.47808 10.0714 6.41663 9.91666 6.41663ZM11.0833 1.16663H2.91666C2.45253 1.16663 2.00741 1.351 1.67922 1.67919C1.35103 2.00738 1.16666 2.4525 1.16666 2.91663V8.74996C1.16666 9.21409 1.35103 9.65921 1.67922 9.9874C2.00741 10.3156 2.45253 10.5 2.91666 10.5H9.67749L11.8358 12.6641C11.8903 12.7182 11.955 12.761 12.026 12.79C12.0971 12.819 12.1732 12.8337 12.25 12.8333C12.3265 12.8353 12.4024 12.8193 12.4717 12.7866C12.5782 12.7429 12.6694 12.6685 12.7337 12.573C12.7981 12.4775 12.8327 12.3651 12.8333 12.25V2.91663C12.8333 2.4525 12.6489 2.00738 12.3208 1.67919C11.9926 1.351 11.5475 1.16663 11.0833 1.16663ZM11.6667 10.8441L10.3308 9.50246C10.2763 9.4484 10.2117 9.40562 10.1406 9.37659C10.0695 9.34756 9.99343 9.33285 9.91666 9.33329H2.91666C2.76195 9.33329 2.61357 9.27183 2.50418 9.16244C2.39478 9.05304 2.33332 8.90467 2.33332 8.74996V2.91663C2.33332 2.76192 2.39478 2.61354 2.50418 2.50415C2.61357 2.39475 2.76195 2.33329 2.91666 2.33329H11.0833C11.238 2.33329 11.3864 2.39475 11.4958 2.50415C11.6052 2.61354 11.6667 2.76192 11.6667 2.91663V10.8441Z" fill="#6B7280"/>
</svg>
