<svg width="14" height="14" viewBox="0 0 14 14" fill="none" xmlns="http://www.w3.org/2000/svg">
<path d="M9.91669 4.08335H4.08335C3.92864 4.08335 3.78027 4.14481 3.67087 4.25421C3.56148 4.3636 3.50002 4.51198 3.50002 4.66669C3.50002 4.8214 3.56148 4.96977 3.67087 5.07917C3.78027 5.18856 3.92864 5.25002 4.08335 5.25002H9.91669C10.0714 5.25002 10.2198 5.18856 10.3292 5.07917C10.4386 4.96977 10.5 4.8214 10.5 4.66669C10.5 4.51198 10.4386 4.3636 10.3292 4.25421C10.2198 4.14481 10.0714 4.08335 9.91669 4.08335ZM9.91669 6.41669H4.08335C3.92864 6.41669 3.78027 6.47815 3.67087 6.58754C3.56148 6.69694 3.50002 6.84531 3.50002 7.00002C3.50002 7.15473 3.56148 7.3031 3.67087 7.4125C3.78027 7.5219 3.92864 7.58335 4.08335 7.58335H9.91669C10.0714 7.58335 10.2198 7.5219 10.3292 7.4125C10.4386 7.3031 10.5 7.15473 10.5 7.00002C10.5 6.84531 10.4386 6.69694 10.3292 6.58754C10.2198 6.47815 10.0714 6.41669 9.91669 6.41669ZM11.0834 1.16669H2.91669C2.45256 1.16669 2.00744 1.35106 1.67925 1.67925C1.35106 2.00744 1.16669 2.45256 1.16669 2.91669V8.75002C1.16669 9.21415 1.35106 9.65927 1.67925 9.98746C2.00744 10.3156 2.45256 10.5 2.91669 10.5H9.67752L11.8359 12.6642C11.8904 12.7183 11.955 12.761 12.0261 12.7901C12.0971 12.8191 12.1732 12.8338 12.25 12.8334C12.3265 12.8353 12.4025 12.8193 12.4717 12.7867C12.5782 12.7429 12.6694 12.6686 12.7338 12.5731C12.7981 12.4776 12.8328 12.3652 12.8334 12.25V2.91669C12.8334 2.45256 12.649 2.00744 12.3208 1.67925C11.9926 1.35106 11.5475 1.16669 11.0834 1.16669ZM11.6667 10.8442L10.3309 9.50252C10.2763 9.44846 10.2117 9.40568 10.1406 9.37665C10.0696 9.34762 9.99346 9.33291 9.91669 9.33335H2.91669C2.76198 9.33335 2.6136 9.2719 2.50421 9.1625C2.39481 9.0531 2.33335 8.90473 2.33335 8.75002V2.91669C2.33335 2.76198 2.39481 2.6136 2.50421 2.50421C2.6136 2.39481 2.76198 2.33335 2.91669 2.33335H11.0834C11.2381 2.33335 11.3864 2.39481 11.4958 2.50421C11.6052 2.6136 11.6667 2.76198 11.6667 2.91669V10.8442Z" fill="#6B7280"/>
</svg>
