<svg width="14" height="14" viewBox="0 0 14 14" fill="none" xmlns="http://www.w3.org/2000/svg">
<path d="M9.91669 4.08329H4.08335C3.92864 4.08329 3.78027 4.14475 3.67087 4.25415C3.56148 4.36354 3.50002 4.51192 3.50002 4.66663C3.50002 4.82134 3.56148 4.96971 3.67087 5.0791C3.78027 5.1885 3.92864 5.24996 4.08335 5.24996H9.91669C10.0714 5.24996 10.2198 5.1885 10.3292 5.0791C10.4386 4.96971 10.5 4.82134 10.5 4.66663C10.5 4.51192 10.4386 4.36354 10.3292 4.25415C10.2198 4.14475 10.0714 4.08329 9.91669 4.08329ZM9.91669 6.41663H4.08335C3.92864 6.41663 3.78027 6.47808 3.67087 6.58748C3.56148 6.69688 3.50002 6.84525 3.50002 6.99996C3.50002 7.15467 3.56148 7.30304 3.67087 7.41244C3.78027 7.52183 3.92864 7.58329 4.08335 7.58329H9.91669C10.0714 7.58329 10.2198 7.52183 10.3292 7.41244C10.4386 7.30304 10.5 7.15467 10.5 6.99996C10.5 6.84525 10.4386 6.69688 10.3292 6.58748C10.2198 6.47808 10.0714 6.41663 9.91669 6.41663ZM11.0834 1.16663H2.91669C2.45256 1.16663 2.00744 1.351 1.67925 1.67919C1.35106 2.00738 1.16669 2.4525 1.16669 2.91663V8.74996C1.16669 9.21409 1.35106 9.65921 1.67925 9.9874C2.00744 10.3156 2.45256 10.5 2.91669 10.5H9.67752L11.8359 12.6641C11.8904 12.7182 11.955 12.761 12.0261 12.79C12.0971 12.819 12.1732 12.8337 12.25 12.8333C12.3265 12.8353 12.4025 12.8193 12.4717 12.7866C12.5782 12.7429 12.6694 12.6685 12.7338 12.573C12.7981 12.4775 12.8328 12.3651 12.8334 12.25V2.91663C12.8334 2.4525 12.649 2.00738 12.3208 1.67919C11.9926 1.351 11.5475 1.16663 11.0834 1.16663ZM11.6667 10.8441L10.3309 9.50246C10.2763 9.4484 10.2117 9.40562 10.1406 9.37659C10.0696 9.34756 9.99346 9.33285 9.91669 9.33329H2.91669C2.76198 9.33329 2.6136 9.27183 2.50421 9.16244C2.39481 9.05304 2.33335 8.90467 2.33335 8.74996V2.91663C2.33335 2.76192 2.39481 2.61354 2.50421 2.50415C2.6136 2.39475 2.76198 2.33329 2.91669 2.33329H11.0834C11.2381 2.33329 11.3864 2.39475 11.4958 2.50415C11.6052 2.61354 11.6667 2.76192 11.6667 2.91663V10.8441Z" fill="#6B7280"/>
</svg>
