<svg width="12" height="7" viewBox="0 0 12 7" fill="none" xmlns="http://www.w3.org/2000/svg">
<path d="M0.493791 6.70831C0.386846 6.60136 0.333374 6.46758 0.333374 6.30697C0.333374 6.14636 0.386846 6.00792 0.493791 5.89164L3.99379 2.36247C4.05212 2.31386 4.11532 2.27497 4.18337 2.24581C4.25143 2.21664 4.32435 2.20206 4.40212 2.20206C4.4799 2.20206 4.55515 2.21664 4.62787 2.24581C4.7006 2.27497 4.76146 2.31386 4.81046 2.36247L6.73546 4.28747L9.76879 1.28331H8.83546C8.67018 1.28331 8.53154 1.22731 8.41954 1.11531C8.30754 1.00331 8.25173 0.864862 8.25212 0.699974C8.25212 0.534696 8.30812 0.396057 8.42012 0.284057C8.53212 0.172057 8.67057 0.116251 8.83546 0.11664H11.1688C11.3341 0.11664 11.4727 0.17264 11.5847 0.28464C11.6967 0.39664 11.7525 0.535085 11.7521 0.699974V3.03331C11.7521 3.19858 11.6961 3.33722 11.5841 3.44922C11.4721 3.56122 11.3337 3.61703 11.1688 3.61664C11.0035 3.61664 10.8649 3.56064 10.7529 3.44864C10.6409 3.33664 10.5851 3.1982 10.5855 3.03331V2.09997L7.14379 5.54164C7.08546 5.59997 7.02226 5.64139 6.95421 5.66589C6.88615 5.69039 6.81323 5.70245 6.73546 5.70206C6.65768 5.70206 6.58476 5.69 6.51671 5.66589C6.44865 5.64178 6.38546 5.60036 6.32712 5.54164L4.40212 3.61664L1.29587 6.72289C1.18893 6.82983 1.05768 6.88331 0.902124 6.88331C0.746569 6.88331 0.610457 6.82497 0.493791 6.70831Z" fill="#F9FAFB"/>
</svg>
