<svg width="11" height="12" viewBox="0 0 11 12" fill="none" xmlns="http://www.w3.org/2000/svg">
<path d="M10.902 5.66115C10.9021 5.58167 10.8865 5.50297 10.8561 5.42953C10.8257 5.35609 10.7811 5.28937 10.725 5.23317C10.6688 5.17698 10.602 5.13242 10.5286 5.10204C10.4552 5.07167 10.3765 5.05608 10.297 5.05616L6.10499 5.05187L6.10499 0.85558C6.10499 0.776132 6.08934 0.697462 6.05893 0.624062C6.02853 0.550661 5.98397 0.483968 5.92779 0.42779C5.87161 0.371612 5.80492 0.327049 5.73152 0.296645C5.65812 0.266242 5.57945 0.250593 5.5 0.250593C5.42055 0.250593 5.34188 0.266242 5.26848 0.296645C5.19508 0.327049 5.12839 0.371612 5.07221 0.42779C5.01603 0.483968 4.97147 0.550661 4.94107 0.624062C4.91066 0.697462 4.89501 0.776132 4.89501 0.85558L4.89501 5.05187L0.698725 5.05187C0.619277 5.05187 0.540607 5.06752 0.467207 5.09792C0.393806 5.12832 0.327114 5.17289 0.270936 5.22906C0.214758 5.28524 0.170194 5.35194 0.139791 5.42534C0.109387 5.49874 0.0937393 5.57741 0.093739 5.65685C0.0937391 5.7363 0.109387 5.81497 0.139791 5.88837C0.170194 5.96177 0.214758 6.02847 0.270936 6.08464C0.327114 6.14082 0.393807 6.18539 0.467207 6.21579C0.540607 6.24619 0.619278 6.26184 0.698726 6.26184L4.89501 6.26184L4.89501 10.4581C4.89501 10.5376 4.91066 10.6162 4.94107 10.6896C4.97147 10.763 5.01603 10.8297 5.07221 10.8859C5.12839 10.9421 5.19508 10.9867 5.26848 11.0171C5.34188 11.0475 5.42055 11.0631 5.5 11.0631C5.57945 11.0631 5.65812 11.0475 5.73152 11.0171C5.80492 10.9867 5.87161 10.9421 5.92779 10.8859C5.98397 10.8297 6.02853 10.763 6.05893 10.6896C6.08934 10.6162 6.10499 10.5376 6.10499 10.4581L6.10499 6.26184L10.3013 6.26184C10.6274 6.26184 10.902 5.98724 10.902 5.66115Z" fill="white" fill-opacity="0.3"/>
</svg>
