<svg width="58" height="51" viewBox="0 0 58 51" fill="none" xmlns="http://www.w3.org/2000/svg">
<path d="M53.36 9.22727H6.96C6.3447 9.22727 5.7546 8.98423 5.31951 8.55162C4.88443 8.11901 4.64 7.53226 4.64 6.92045C4.64 6.30865 4.88443 5.7219 5.31951 5.28929C5.7546 4.85668 6.3447 4.61364 6.96 4.61364H46.4C47.0153 4.61364 47.6054 4.3706 48.0405 3.93798C48.4756 3.50537 48.72 2.91862 48.72 2.30682C48.72 1.69501 48.4756 1.10826 48.0405 0.675652C47.6054 0.24304 47.0153 0 46.4 0H6.96C5.11409 0 3.34379 0.729117 2.03854 2.02695C0.733284 3.32479 0 5.08504 0 6.92045V43.8295C0 45.665 0.733284 47.4252 2.03854 48.723C3.34379 50.0209 5.11409 50.75 6.96 50.75H53.36C54.5906 50.75 55.7708 50.2639 56.641 49.3987C57.5111 48.5335 58 47.36 58 46.1364V13.8409C58 12.6173 57.5111 11.4438 56.641 10.5786C55.7708 9.71335 54.5906 9.22727 53.36 9.22727ZM53.36 46.1364H6.96C6.3447 46.1364 5.7546 45.8933 5.31951 45.4607C4.88443 45.0281 4.64 44.4414 4.64 43.8295V13.4459C5.38494 13.7084 6.16964 13.8421 6.96 13.8409H53.36V46.1364ZM39.44 28.8352C39.44 28.1509 39.6441 27.4819 40.0265 26.9128C40.4089 26.3438 40.9524 25.9003 41.5883 25.6384C42.2242 25.3765 42.9239 25.308 43.5989 25.4415C44.274 25.575 44.894 25.9046 45.3807 26.3885C45.8674 26.8724 46.1989 27.489 46.3331 28.1602C46.4674 28.8314 46.3985 29.5271 46.1351 30.1594C45.8717 30.7917 45.4257 31.3321 44.8534 31.7123C44.2811 32.0925 43.6083 32.2955 42.92 32.2955C41.997 32.2955 41.1119 31.9309 40.4593 31.282C39.8066 30.6331 39.44 29.7529 39.44 28.8352Z" fill="#F9FAFB"/>
</svg>
