<svg width="59" height="52" viewBox="0 0 59 52" fill="none" xmlns="http://www.w3.org/2000/svg">
<path d="M45.1444 38.74L49.5629 41.664C49.9912 41.9478 50.5128 42.0578 51.0203 41.9715C51.5278 41.8852 51.9828 41.6091 52.2917 41.2L58.3334 33.2L55.1112 30.8L50.2114 37.288L45.7566 34.336C45.3217 34.0474 44.7907 33.9383 44.2762 34.0316C43.7616 34.1249 43.3038 34.4134 42.9996 34.836L36.5834 43.758V28H32.5556V48C32.5567 49.0605 32.9814 50.0773 33.7365 50.8273C34.4916 51.5772 35.5155 51.9989 36.5834 52H56.7223V48H38.4825L45.1444 38.74ZM0.333374 38H28.5278V42H0.333374V38ZM0.333374 48H28.5278V52H0.333374V48ZM18.4584 28V18H20.4723C22.6079 17.9974 24.6553 17.1536 26.1655 15.6539C27.6756 14.1542 28.5252 12.1209 28.5278 10V4H22.4862C20.4239 4.00336 18.4424 4.79637 16.954 6.214C15.9111 4.33354 14.3796 2.76517 12.519 1.67226C10.6584 0.579347 8.53675 0.00187796 6.37504 0H0.333374V6C0.337105 9.18146 1.61136 12.2316 3.87662 14.4812C6.14188 16.7308 9.21315 17.9963 12.4167 18H14.4306V28H0.333374V32H28.5278V28H18.4584ZM22.4862 8H24.5V10C24.499 11.0605 24.0743 12.0773 23.3192 12.8273C22.564 13.5772 21.5402 13.9989 20.4723 14H18.4584V12C18.4594 10.9395 18.8841 9.92266 19.6393 9.17274C20.3944 8.42283 21.4182 8.00106 22.4862 8ZM12.4167 14C10.2811 13.9974 8.23364 13.1536 6.72351 11.6539C5.21338 10.1542 4.36382 8.12092 4.36115 6V4H6.37504C8.51069 4.00265 10.5581 4.84635 12.0682 6.34607C13.5784 7.84579 14.4279 9.87908 14.4306 12V14H12.4167Z" fill="#F9FAFB"/>
</svg>
