<svg width="12" height="12" viewBox="0 0 12 12" fill="none" xmlns="http://www.w3.org/2000/svg">
<path d="M11.402 5.76637C11.4021 5.6869 11.3865 5.60819 11.3561 5.53475C11.3257 5.46132 11.2811 5.39459 11.225 5.3384C11.1688 5.2822 11.102 5.23764 11.0286 5.20727C10.9552 5.17689 10.8765 5.1613 10.797 5.16138L6.60499 5.15709L6.60499 0.960805C6.60499 0.881357 6.58934 0.802687 6.55893 0.729286C6.52853 0.655886 6.48397 0.589193 6.42779 0.533015C6.37161 0.476836 6.30492 0.432273 6.23152 0.40187C6.15812 0.371466 6.07945 0.355818 6 0.355818C5.92055 0.355818 5.84188 0.371466 5.76848 0.40187C5.69508 0.432273 5.62839 0.476836 5.57221 0.533015C5.51603 0.589193 5.47147 0.655886 5.44107 0.729286C5.41066 0.802687 5.39501 0.881357 5.39501 0.960805L5.39501 5.15709L1.19873 5.15709C1.11928 5.15709 1.04061 5.17274 0.967207 5.20314C0.893806 5.23355 0.827114 5.27811 0.770936 5.33429C0.714758 5.39047 0.670194 5.45716 0.639791 5.53056C0.609387 5.60396 0.593739 5.68263 0.593739 5.76208C0.593739 5.84153 0.609387 5.9202 0.639791 5.9936C0.670194 6.067 0.714758 6.13369 0.770936 6.18987C0.827114 6.24605 0.893807 6.29061 0.967207 6.32101C1.04061 6.35142 1.11928 6.36707 1.19873 6.36707L5.39501 6.36707L5.39501 10.5634C5.39501 10.6428 5.41066 10.7215 5.44107 10.7949C5.47147 10.8683 5.51603 10.935 5.57221 10.9911C5.62839 11.0473 5.69508 11.0919 5.76848 11.1223C5.84188 11.1527 5.92055 11.1683 6 11.1683C6.07945 11.1683 6.15812 11.1527 6.23152 11.1223C6.30492 11.0919 6.37161 11.0473 6.42779 10.9911C6.48397 10.935 6.52853 10.8683 6.55893 10.7949C6.58934 10.7215 6.60499 10.6428 6.60499 10.5634L6.60499 6.36707L10.8013 6.36707C11.1274 6.36707 11.402 6.09246 11.402 5.76637Z" fill="url(#paint0_linear_0_303)"/>
<defs>
<linearGradient id="paint0_linear_0_303" x1="3.9836" y1="3.79038" x2="8.25237" y2="8.05915" gradientUnits="userSpaceOnUse">
<stop stop-color="#3C3CF0"/>
<stop offset="0.17" stop-color="#3451E6"/>
<stop offset="0.52" stop-color="#2088CD"/>
<stop offset="1" stop-color="#00DCA5"/>
</linearGradient>
</defs>
</svg>
