<svg width="12" height="10" viewBox="0 0 12 10" fill="none" xmlns="http://www.w3.org/2000/svg">
<path d="M3.70444 7.77526L1.21906 5.28989C1.08514 5.15597 0.903505 5.08073 0.714111 5.08073C0.524717 5.08073 0.34308 5.15597 0.209158 5.28989C0.0752365 5.42381 0 5.60545 0 5.79485C0 5.88862 0.0184712 5.98148 0.0543586 6.06812C0.0902461 6.15476 0.142847 6.23349 0.209158 6.2998L3.20306 9.2937C3.4824 9.57304 3.93363 9.57304 4.21297 9.2937L11.7908 1.71583C11.9248 1.58191 12 1.40027 12 1.21088C12 1.02148 11.9248 0.839845 11.7908 0.705924C11.6569 0.572002 11.4753 0.496765 11.2859 0.496765C11.0965 0.496765 10.9149 0.572002 10.7809 0.705924L3.70444 7.77526Z" fill="#00DCA5"/>
</svg>
