<svg width="44" height="44" viewBox="0 0 44 44" fill="none" xmlns="http://www.w3.org/2000/svg">
<path d="M43.0086 22.0167C43.0089 21.7076 42.9483 21.4015 42.8302 21.1159C42.712 20.8303 42.5387 20.5708 42.3202 20.3523C42.1017 20.1337 41.8422 19.9604 41.5566 19.8423C41.271 19.7242 40.9649 19.6635 40.6558 19.6639L24.3528 19.6472L24.3528 3.32753C24.3528 3.01855 24.292 2.7126 24.1737 2.42714C24.0555 2.14168 23.8822 1.88231 23.6637 1.66383C23.4452 1.44535 23.1858 1.27204 22.9004 1.15379C22.6149 1.03555 22.309 0.974696 22 0.974696C21.691 0.974696 21.3851 1.03555 21.0996 1.15379C20.8142 1.27204 20.5548 1.44535 20.3363 1.66383C20.1178 1.88231 19.9445 2.14168 19.8263 2.42714C19.708 2.7126 19.6472 3.01855 19.6472 3.32753L19.6472 19.6472L3.32752 19.6472C3.01855 19.6472 2.71259 19.708 2.42713 19.8263C2.14167 19.9445 1.8823 20.1178 1.66382 20.3363C1.44534 20.5548 1.27203 20.8142 1.15379 21.0996C1.03555 21.3851 0.974693 21.691 0.974693 22C0.974693 22.309 1.03555 22.6149 1.15379 22.9004C1.27203 23.1859 1.44534 23.4452 1.66382 23.6637C1.8823 23.8822 2.14168 24.0555 2.42714 24.1737C2.71259 24.292 3.01855 24.3528 3.32753 24.3528L19.6472 24.3528V40.6725C19.6472 40.9815 19.708 41.2874 19.8263 41.5729C19.9445 41.8583 20.1178 42.1177 20.3363 42.3362C20.5548 42.5547 20.8142 42.728 21.0996 42.8462C21.3851 42.9645 21.691 43.0253 22 43.0253C22.309 43.0253 22.6149 42.9645 22.9004 42.8462C23.1858 42.728 23.4452 42.5547 23.6637 42.3362C23.8822 42.1177 24.0555 41.8583 24.1737 41.5729C24.292 41.2874 24.3528 40.9815 24.3528 40.6725V24.3528L40.6725 24.3528C41.9407 24.3528 43.0086 23.2849 43.0086 22.0167Z" fill="white"/>
</svg>
