<svg width="6" height="11" viewBox="0 0 6 11" fill="none" xmlns="http://www.w3.org/2000/svg">
<path d="M1.18894 10.4357L5.84792 5.79058C5.90322 5.73528 5.94248 5.67538 5.96571 5.61086C5.98893 5.54635 6.00036 5.47722 5.99999 5.40349C5.99999 5.32976 5.98838 5.26063 5.96515 5.19612C5.94193 5.1316 5.90285 5.07169 5.84792 5.01639L1.18894 0.357412C1.05991 0.22838 0.898616 0.163864 0.705068 0.163864C0.511519 0.163864 0.345622 0.232988 0.207373 0.371237C0.0691242 0.509486 0 0.670776 0 0.855107C0 1.03944 0.0691242 1.20073 0.207373 1.33898L4.27188 5.40349L0.207373 9.468C0.0783405 9.59703 0.0138245 9.75611 0.0138245 9.94523C0.0138245 10.1344 0.0829487 10.2979 0.221198 10.4357C0.359446 10.574 0.520736 10.6431 0.705068 10.6431C0.8894 10.6431 1.05069 10.574 1.18894 10.4357Z" fill="white"/>
</svg>
