<svg width="32" height="20" viewBox="0 0 32 20" fill="none" xmlns="http://www.w3.org/2000/svg">
<path d="M0.449553 18.8178C0.149851 18.5175 0 18.1419 0 17.6909C0 17.24 0.149851 16.8512 0.449553 16.5247L10.258 6.61524C10.4215 6.47875 10.5985 6.36955 10.7893 6.28766C10.98 6.20576 11.1843 6.16481 11.4023 6.16481C11.6203 6.16481 11.8311 6.20576 12.0349 6.28766C12.2387 6.36955 12.4093 6.47875 12.5466 6.61524L17.9412 12.0204L26.4419 3.58507H23.8263C23.3631 3.58507 22.9746 3.42783 22.6607 3.11335C22.3469 2.79886 22.1905 2.41013 22.1916 1.94714C22.1916 1.48306 22.3485 1.09378 22.6624 0.779296C22.9762 0.464813 23.3642 0.308118 23.8263 0.30921H30.3653C30.8284 0.30921 31.217 0.466451 31.5308 0.780934C31.8447 1.09542 32.0011 1.48415 32 1.94714V8.49886C32 8.96294 31.8431 9.35222 31.5292 9.66671C31.2153 9.98119 30.8273 10.1379 30.3653 10.1368C29.9021 10.1368 29.5136 9.97955 29.1997 9.66507C28.8858 9.35058 28.7294 8.96185 28.7305 8.49886V5.87817L19.0856 15.542C18.9221 15.7058 18.745 15.822 18.5543 15.8908C18.3636 15.9596 18.1592 15.9935 17.9412 15.9924C17.7233 15.9924 17.5189 15.9585 17.3282 15.8908C17.1375 15.8231 16.9604 15.7068 16.7969 15.542L11.4023 10.1368L2.69732 18.8588C2.39762 19.1591 2.0298 19.3092 1.59387 19.3092C1.15794 19.3092 0.776501 19.1454 0.449553 18.8178Z" fill="#00DCA5"/>
</svg>
